<?xml version="1.0" encoding="UTF-8"?>
<svg width="104px" height="31px" viewBox="0 0 104 31" version="1.1" xmlns="http://www.w3.org/2000/svg" xmlns:xlink="http://www.w3.org/1999/xlink">
    <!-- Generator: Sketch 56.3 (81716) - https://sketch.com -->
    <title>Group 43</title>
    <desc>Created with Sketch.</desc>
    <defs>
        <polygon id="path-1" points="0 30.886784 103.48288 30.886784 103.48288 0.000384 0 0.000384"></polygon>
    </defs>
    <g id="Homepage" stroke="none" stroke-width="1" fill="none" fill-rule="evenodd">
        <g id="homepage-3" transform="translate(-128.000000, -3355.000000)">
            <g id="Group-25" transform="translate(0.000000, 3096.000000)">
                <g id="Group-24" transform="translate(128.000000, 259.000000)">
                    <g id="Group-43" transform="translate(0.000000, 0.000000)">
                        <path d="M99.501696,0.160384 L3.980416,0.160384 C1.878656,0.160384 0.160896,1.879424 0.160896,3.979904 L0.160896,26.905984 C0.160896,29.007744 1.878656,30.726784 3.980416,30.726784 L99.501696,30.726784 C101.604736,30.726784 103.322496,29.007744 103.322496,26.905984 L103.322496,3.979904 C103.322496,1.879424 101.604736,0.160384 99.501696,0.160384 M99.501696,0.772224 C101.271936,0.772224 102.711936,2.210944 102.711936,3.979904 L102.711936,26.905984 C102.711936,28.674944 101.271936,30.114944 99.501696,30.114944 L3.980416,30.114944 C2.211456,30.114944 0.771456,28.674944 0.771456,26.905984 L0.771456,3.979904 C0.771456,2.210944 2.211456,0.772224 3.980416,0.772224 L99.501696,0.772224" id="Fill-1" fill="#FEFEFE"></path>
                        <path d="M99.501696,0.160384 L3.980416,0.160384 C1.878656,0.160384 0.160896,1.879424 0.160896,3.979904 L0.160896,26.905984 C0.160896,29.007744 1.878656,30.726784 3.980416,30.726784 L99.501696,30.726784 C101.604736,30.726784 103.322496,29.007744 103.322496,26.905984 L103.322496,3.979904 C103.322496,1.879424 101.604736,0.160384 99.501696,0.160384 Z M99.501696,0.772224 C101.271936,0.772224 102.711936,2.210944 102.711936,3.979904 L102.711936,26.905984 C102.711936,28.674944 101.271936,30.114944 99.501696,30.114944 L3.980416,30.114944 C2.211456,30.114944 0.771456,28.674944 0.771456,26.905984 L0.771456,3.979904 C0.771456,2.210944 2.211456,0.772224 3.980416,0.772224 L99.501696,0.772224 L99.501696,0.772224 Z" id="Stroke-3" stroke="#FEFEFE" stroke-width="0.25"></path>
                        <path d="M22.612864,15.447936 C22.589824,12.981376 24.631424,11.782016 24.723584,11.725696 C23.569024,10.039936 21.777024,9.809536 21.145984,9.791616 C19.641984,9.632896 18.182784,10.691456 17.414784,10.691456 C16.632704,10.691456 15.452544,9.806976 14.180224,9.832576 C12.544384,9.859456 11.012224,10.806656 10.171264,12.277376 C8.438144,15.280256 9.730944,19.691136 11.391104,22.118016 C12.221824,23.305856 13.193344,24.633216 14.464384,24.585856 C15.705984,24.534656 16.171904,23.793536 17.673344,23.793536 C19.159424,23.793536 19.595904,24.585856 20.891264,24.555136 C22.225024,24.534656 23.065984,23.363456 23.867264,22.162816 C24.827264,20.800896 25.213824,19.459456 25.229184,19.390336 C25.198464,19.380096 22.638464,18.404736 22.612864,15.447936" id="Fill-5" fill="#FEFEFE"></path>
                        <path d="M20.164096,8.195456 C20.830976,7.359616 21.289216,6.221696 21.162496,5.067136 C20.193536,5.109376 18.983936,5.735296 18.287616,6.554496 C17.670656,7.275136 17.120256,8.456576 17.261056,9.567616 C18.349056,9.648256 19.465216,9.019776 20.164096,8.195456" id="Fill-7" fill="#FEFEFE"></path>
                        <path d="M37.630336,20.169216 L36.768896,17.510656 C36.678016,17.239296 36.506496,16.599296 36.255616,15.593216 L36.224896,15.593216 C36.123776,16.025856 35.962496,16.665856 35.741056,17.510656 L34.894976,20.169216 L37.630336,20.169216 Z M40.606336,24.414976 L38.869376,24.414976 L37.917056,21.423616 L34.609536,21.423616 L33.702016,24.414976 L32.009856,24.414976 L35.287936,14.232576 L37.312896,14.232576 L40.606336,24.414976 Z" id="Fill-9" fill="#FEFEFE"></path>
                        <path d="M47.37408,20.71296 C47.37408,19.99872 47.2128,19.40864 46.89024,18.94656 C46.53824,18.46272 46.06592,18.2208 45.47072,18.2208 C45.06752,18.2208 44.70272,18.3552 44.37504,18.62144 C44.04736,18.88896 43.8336,19.2384 43.73248,19.67232 C43.68256,19.87456 43.65824,20.03968 43.65824,20.16896 L43.65824,21.39264 C43.65824,21.92768 43.82208,22.37824 44.14848,22.7456 C44.47616,23.11296 44.90112,23.29856 45.42592,23.29856 C46.04032,23.29856 46.51776,23.06048 46.8608,22.58816 C47.20256,22.11456 47.37408,21.48864 47.37408,20.71296 M49.0368,20.65408 C49.0368,21.90208 48.69888,22.88896 48.02432,23.61472 C47.41888,24.25984 46.6688,24.58112 45.7728,24.58112 C44.8064,24.58112 44.11136,24.23424 43.68768,23.5392 L43.65824,23.5392 L43.65824,27.40608 L42.02624,27.40608 L42.02624,19.49056 C42.02624,18.70592 42.00576,17.89952 41.9648,17.07264 L43.40096,17.07264 L43.49184,18.23616 L43.52128,18.23616 C44.06656,17.36064 44.89216,16.9216 45.99936,16.9216 C46.86592,16.9216 47.58784,17.26464 48.16768,17.94944 C48.74624,18.63424 49.0368,19.53536 49.0368,20.65408" id="Fill-11" fill="#FEFEFE"></path>
                        <path d="M55.819136,20.71296 C55.819136,19.99872 55.657856,19.40864 55.335296,18.94656 C54.983296,18.46272 54.510976,18.2208 53.915776,18.2208 C53.511296,18.2208 53.147776,18.3552 52.820096,18.62144 C52.492416,18.88896 52.278656,19.2384 52.178816,19.67232 C52.127616,19.87456 52.103296,20.03968 52.103296,20.16896 L52.103296,21.39264 C52.103296,21.92768 52.267136,22.37824 52.592256,22.7456 C52.919936,23.11296 53.346176,23.29856 53.870976,23.29856 C54.485376,23.29856 54.962816,23.06048 55.305856,22.58816 C55.647616,22.11456 55.819136,21.48864 55.819136,20.71296 M57.481856,20.65408 C57.481856,21.90208 57.142656,22.88896 56.468096,23.61472 C55.863936,24.25984 55.113856,24.58112 54.217856,24.58112 C53.250176,24.58112 52.555136,24.23424 52.132736,23.5392 L52.103296,23.5392 L52.103296,27.40608 L50.471296,27.40608 L50.471296,19.49056 C50.471296,18.70592 50.450816,17.89952 50.411136,17.07264 L51.846016,17.07264 L51.936896,18.23616 L51.966336,18.23616 C52.510336,17.36064 53.335936,16.9216 54.444416,16.9216 C55.309696,16.9216 56.032896,17.26464 56.612736,17.94944 C57.191296,18.63424 57.481856,19.53536 57.481856,20.65408" id="Fill-13" fill="#FEFEFE"></path>
                        <path d="M66.92288,21.560448 C66.92288,22.427008 66.62336,23.131008 66.0192,23.673728 C65.35488,24.268928 64.432,24.567168 63.24544,24.567168 C62.14976,24.567168 61.27168,24.354688 60.60608,23.932288 L60.98368,22.571648 C61.70048,23.005568 62.48512,23.221888 63.34272,23.221888 C63.95712,23.221888 64.43584,23.082368 64.7776,22.805888 C65.12064,22.528128 65.29216,22.156928 65.29216,21.693568 C65.29216,21.280128 65.15008,20.931968 64.86848,20.649088 C64.58688,20.366208 64.1184,20.103808 63.46304,19.861888 C61.68,19.196288 60.7904,18.223488 60.7904,16.942208 C60.7904,16.103808 61.10144,15.417728 61.72608,14.883968 C62.35072,14.348928 63.18016,14.081408 64.21952,14.081408 C65.14624,14.081408 65.91552,14.242688 66.52992,14.565248 L66.1216,15.893888 C65.54816,15.582848 64.8992,15.426688 64.17344,15.426688 C63.59872,15.426688 63.152,15.567488 62.83072,15.849088 C62.55808,16.101248 62.42112,16.408448 62.42112,16.771968 C62.42112,17.173888 62.576,17.506688 62.8896,17.767808 C63.16224,18.011008 63.65376,18.272128 64.37056,18.553728 C65.24608,18.907008 65.88992,19.319168 66.30464,19.791488 C66.7168,20.265088 66.92288,20.855168 66.92288,21.560448" id="Fill-15" fill="#FEFEFE"></path>
                        <path d="M72.316672,18.296704 L70.519552,18.296704 L70.519552,21.861504 C70.519552,22.767744 70.835712,23.222144 71.470592,23.222144 C71.761152,23.222144 72.004352,23.196544 72.195072,23.146624 L72.239872,24.385664 C71.918592,24.505984 71.494912,24.566144 70.971392,24.566144 C70.327552,24.566144 69.824512,24.369024 69.460992,23.977344 C69.098752,23.584384 68.916992,22.923904 68.916992,21.998464 L68.916992,18.296704 L67.845632,18.296704 L67.845632,17.073024 L68.916992,17.073024 L68.916992,15.727744 L70.519552,15.245184 L70.519552,17.073024 L72.316672,17.073024 L72.316672,18.296704 Z" id="Fill-17" fill="#FEFEFE"></path>
                        <path d="M78.73664,20.73664 C78.73664,20.05952 78.592,19.47968 78.29888,18.99456 C77.95712,18.40832 77.46816,18.1152 76.83456,18.1152 C76.17792,18.1152 75.68,18.40832 75.33824,18.99456 C75.04512,19.47968 74.90048,20.06976 74.90048,20.76608 C74.90048,21.44448 75.04512,22.0256 75.33824,22.50944 C75.69024,23.09568 76.18432,23.38752 76.8192,23.38752 C77.44256,23.38752 77.93152,23.08928 78.28352,22.49408 C78.5856,21.99872 78.73664,21.41248 78.73664,20.73664 M80.4288,20.68416 C80.4288,21.81184 80.10624,22.73728 79.4624,23.46304 C78.78784,24.20928 77.89056,24.58176 76.77312,24.58176 C75.69536,24.58176 74.83776,24.22464 74.19776,23.50912 C73.55776,22.7936 73.23904,21.8912 73.23904,20.80448 C73.23904,19.66656 73.568,18.736 74.22848,18.01024 C74.8864,17.28448 75.776,16.92224 76.89472,16.92224 C77.9712,16.92224 78.83776,17.27936 79.49312,17.99488 C80.11776,18.68992 80.4288,19.58592 80.4288,20.68416" id="Fill-19" fill="#FEFEFE"></path>
                        <path d="M85.731584,18.507904 C85.570304,18.478464 85.398784,18.463104 85.218304,18.463104 C84.643584,18.463104 84.200704,18.679424 83.888384,19.113344 C83.615744,19.494784 83.480064,19.978624 83.480064,20.562304 L83.480064,24.415104 L81.849344,24.415104 L81.864704,19.385984 C81.864704,18.537344 81.842944,17.768064 81.803264,17.073024 L83.224064,17.073024 L83.284224,18.478464 L83.329024,18.478464 C83.500544,17.995904 83.773184,17.606784 84.145664,17.314944 C84.507904,17.052544 84.902144,16.921984 85.324544,16.921984 C85.475584,16.921984 85.609984,16.933504 85.731584,16.951424 L85.731584,18.507904 Z" id="Fill-21" fill="#FEFEFE"></path>
                        <path d="M91.471616,19.974144 C91.483136,19.490304 91.376896,19.073024 91.155456,18.721024 C90.872576,18.266624 90.438656,18.040064 89.854976,18.040064 C89.321216,18.040064 88.887296,18.261504 88.557056,18.705664 C88.284416,19.057664 88.123136,19.480064 88.074496,19.974144 L91.471616,19.974144 Z M93.028096,20.396544 C93.028096,20.689664 93.007616,20.935424 92.967936,21.136384 L88.074496,21.136384 C88.092416,21.862144 88.329216,22.416384 88.783616,22.799104 C89.197056,23.142144 89.729536,23.312384 90.383616,23.312384 C91.109376,23.312384 91.768576,23.197184 92.363776,22.965504 L92.619776,24.098304 C91.924736,24.400384 91.104256,24.551424 90.158336,24.551424 C89.019136,24.551424 88.126976,24.216064 87.475456,23.546624 C86.827776,22.877184 86.501376,21.977344 86.501376,20.849664 C86.501376,19.741184 86.803456,18.820864 87.408896,18.084864 C88.042496,17.298944 88.898816,16.907264 89.976576,16.907264 C91.033856,16.907264 91.835136,17.298944 92.379136,18.084864 C92.811776,18.709504 93.028096,19.480064 93.028096,20.396544 L93.028096,20.396544 Z" id="Fill-23" fill="#FEFEFE"></path>
                        <path d="M36.245376,7.9904 C36.245376,7.40672 36.090496,6.95872 35.780736,6.6464 C35.472256,6.33536 35.020416,6.1792 34.426496,6.1792 C34.174336,6.1792 33.958016,6.19712 33.780096,6.23168 L33.780096,9.97184 C33.878656,9.9872 34.060416,9.9936 34.322816,9.9936 C34.935936,9.9936 35.409536,9.82464 35.743616,9.48288 C36.077696,9.13984 36.245376,8.64448 36.245376,7.9904 M37.090176,7.96736 C37.090176,8.86976 36.821376,9.54688 36.281216,10.00128 C35.782016,10.4224 35.071616,10.63232 34.151296,10.63232 C33.696896,10.63232 33.305216,10.61312 32.978816,10.57344 L32.978816,5.65312 C33.403776,5.58272 33.864576,5.54944 34.358656,5.54944 C35.235456,5.54944 35.895936,5.73888 36.341376,6.12032 C36.840576,6.5504 37.090176,7.16608 37.090176,7.96736" id="Fill-25" fill="#FEFEFE"></path>
                        <path d="M40.741632,8.781696 C40.741632,8.448896 40.669952,8.163456 40.526592,7.925376 C40.357632,7.636096 40.118272,7.492736 39.807232,7.492736 C39.485952,7.492736 39.238912,7.636096 39.071232,7.925376 C38.927872,8.163456 38.856192,8.454016 38.856192,8.795776 C38.856192,9.128576 38.927872,9.414016 39.071232,9.652096 C39.245312,9.938816 39.487232,10.084736 39.799552,10.084736 C40.105472,10.084736 40.344832,9.936256 40.518912,9.644416 C40.667392,9.401216 40.741632,9.114496 40.741632,8.781696 M41.572352,8.754816 C41.572352,9.309056 41.414912,9.764736 41.097472,10.120576 C40.767232,10.486656 40.326912,10.670976 39.776512,10.670976 C39.246592,10.670976 38.825472,10.494336 38.511872,10.142336 C38.198272,9.791616 38.040832,9.348736 38.040832,8.813696 C38.040832,8.255616 38.202112,7.797376 38.527232,7.441536 C38.849792,7.085696 39.286272,6.906496 39.836672,6.906496 C40.365312,6.906496 40.790272,7.083136 41.112832,7.433856 C41.418752,7.775616 41.572352,8.215936 41.572352,8.754816" id="Fill-27" fill="#FEFEFE"></path>
                        <path d="M47.584128,6.981632 L46.456448,10.587392 L45.721728,10.587392 L45.254528,9.021952 C45.135488,8.631552 45.039488,8.242432 44.963968,7.857152 L44.949888,7.857152 C44.880768,8.252672 44.783488,8.641792 44.660608,9.021952 L44.162688,10.587392 L43.420288,10.587392 L42.359168,6.981632 L43.183488,6.981632 L43.591808,8.695552 C43.690368,9.101312 43.771008,9.486592 43.836288,9.852672 L43.850368,9.852672 C43.910528,9.551872 44.009088,9.167872 44.147328,8.703232 L44.660608,6.981632 L45.313408,6.981632 L45.802368,8.666112 C45.921408,9.076992 46.018688,9.472512 46.092928,9.852672 L46.115968,9.852672 C46.169728,9.482752 46.250368,9.087232 46.360448,8.666112 L46.798208,6.981632 L47.584128,6.981632 Z" id="Fill-29" fill="#FEFEFE"></path>
                        <path d="M51.741696,10.587904 L50.939136,10.587904 L50.939136,8.523264 C50.939136,7.885824 50.698496,7.568384 50.213376,7.568384 C49.975296,7.568384 49.782016,7.655424 49.634816,7.830784 C49.485056,8.004864 49.410816,8.212224 49.410816,8.449024 L49.410816,10.587904 L48.609536,10.587904 L48.609536,8.012544 C48.609536,7.696384 48.599296,7.353344 48.580096,6.982144 L49.284096,6.982144 L49.321216,7.545344 L49.344256,7.545344 C49.437696,7.369984 49.577216,7.224064 49.760256,7.108864 C49.976576,6.974464 50.221056,6.906624 50.487296,6.906624 C50.823936,6.906624 51.102976,7.015424 51.325696,7.234304 C51.603456,7.500544 51.741696,7.898624 51.741696,8.428544 L51.741696,10.587904 Z" id="Fill-31" fill="#FEFEFE"></path>
                        <mask id="mask-2" fill="white">
                            <use xlink:href="#path-1"></use>
                        </mask>
                        <g id="Clip-34"></g>
                        <polygon id="Fill-33" fill="#FEFEFE" mask="url(#mask-2)" points="53.152 10.588544 53.95328 10.588544 53.95328 5.327744 53.152 5.327744"></polygon>
                        <path d="M57.841664,8.781696 C57.841664,8.448896 57.768704,8.163456 57.626624,7.925376 C57.458944,7.636096 57.218304,7.492736 56.908544,7.492736 C56.584704,7.492736 56.338944,7.636096 56.171264,7.925376 C56.029184,8.163456 55.956224,8.454016 55.956224,8.795776 C55.956224,9.128576 56.029184,9.414016 56.171264,9.652096 C56.345344,9.938816 56.588544,10.084736 56.900864,10.084736 C57.206784,10.084736 57.444864,9.936256 57.618944,9.644416 C57.767424,9.401216 57.841664,9.114496 57.841664,8.781696 M58.673664,8.754816 C58.673664,9.309056 58.514944,9.764736 58.197504,10.120576 C57.867264,10.486656 57.425664,10.670976 56.877824,10.670976 C56.346624,10.670976 55.925504,10.494336 55.611904,10.142336 C55.298304,9.791616 55.140864,9.348736 55.140864,8.813696 C55.140864,8.255616 55.303424,7.797376 55.627264,7.441536 C55.949824,7.085696 56.386304,6.906496 56.935424,6.906496 C57.466624,6.906496 57.890304,7.083136 58.212864,7.433856 C58.520064,7.775616 58.673664,8.215936 58.673664,8.754816" id="Fill-35" fill="#FEFEFE" mask="url(#mask-2)"></path>
                        <path d="M61.72288,9.349248 L61.72288,8.792448 C60.8384,8.778368 60.39552,9.020288 60.39552,9.519488 C60.39552,9.707648 60.44672,9.849728 60.54912,9.943168 C60.6528,10.036608 60.78464,10.083968 60.9408,10.083968 C61.11616,10.083968 61.28128,10.027648 61.42976,9.916288 C61.58208,9.804928 61.67424,9.662848 61.7088,9.490048 C61.71776,9.450368 61.72288,9.403008 61.72288,9.349248 M62.55488,10.588288 L61.83424,10.588288 L61.77408,10.173568 L61.75232,10.173568 C61.50528,10.503808 61.15456,10.670208 60.69888,10.670208 C60.3584,10.670208 60.0832,10.561408 59.87584,10.342528 C59.6864,10.145408 59.59296,9.900928 59.59296,9.609088 C59.59296,9.167488 59.776,8.832128 60.14592,8.599168 C60.51584,8.366208 61.03296,8.253568 61.70112,8.257408 L61.70112,8.190848 C61.70112,7.715968 61.45152,7.477888 60.95232,7.477888 C60.59648,7.477888 60.28288,7.567488 60.0128,7.745408 L59.85024,7.219328 C60.18432,7.010688 60.59904,6.907008 61.08672,6.907008 C62.03008,6.907008 62.5024,7.403648 62.5024,8.399488 L62.5024,9.728128 C62.5024,10.087808 62.52032,10.375808 62.55488,10.588288" id="Fill-36" fill="#FEFEFE" mask="url(#mask-2)"></path>
                        <path d="M66.280448,9.066624 L66.280448,8.465024 C66.280448,8.361344 66.272768,8.278144 66.257408,8.212864 C66.212608,8.020864 66.116608,7.858304 65.968128,7.726464 C65.819648,7.597184 65.639168,7.530624 65.431808,7.530624 C65.133568,7.530624 64.898048,7.649664 64.726528,7.886464 C64.555008,8.124544 64.469248,8.427904 64.469248,8.799104 C64.469248,9.154944 64.551168,9.445504 64.715008,9.668224 C64.889088,9.905024 65.124608,10.024064 65.416448,10.024064 C65.678848,10.024064 65.890048,9.925504 66.050048,9.728384 C66.203648,9.544064 66.280448,9.323904 66.280448,9.066624 M67.111168,10.587264 L66.400768,10.587264 L66.362368,10.008704 L66.340608,10.008704 C66.112768,10.449024 65.724928,10.670464 65.182208,10.670464 C64.747008,10.670464 64.386048,10.498944 64.099328,10.158464 C63.811328,9.816704 63.667968,9.373824 63.667968,8.828544 C63.667968,8.244864 63.824128,7.772544 64.135168,7.411584 C64.438528,7.074944 64.808448,6.907264 65.248768,6.907264 C65.732608,6.907264 66.073088,7.069824 66.265088,7.396224 L66.280448,7.396224 L66.280448,5.326464 L67.083008,5.326464 L67.083008,9.617024 C67.083008,9.967744 67.091968,10.291584 67.111168,10.587264" id="Fill-37" fill="#FEFEFE" mask="url(#mask-2)"></path>
                        <path d="M73.13792,8.781696 C73.13792,8.448896 73.06624,8.163456 72.92288,7.925376 C72.75392,7.636096 72.51584,7.492736 72.20352,7.492736 C71.88224,7.492736 71.63648,7.636096 71.46752,7.925376 C71.32416,8.163456 71.25248,8.454016 71.25248,8.795776 C71.25248,9.128576 71.32416,9.414016 71.46752,9.652096 C71.64032,9.938816 71.88352,10.084736 72.19584,10.084736 C72.50176,10.084736 72.7424,9.936256 72.9152,9.644416 C73.06368,9.401216 73.13792,9.114496 73.13792,8.781696 M73.96864,8.754816 C73.96864,9.309056 73.80992,9.764736 73.49376,10.120576 C73.16352,10.486656 72.7232,10.670976 72.1728,10.670976 C71.64416,10.670976 71.22304,10.494336 70.90688,10.142336 C70.59328,9.791616 70.43712,9.348736 70.43712,8.813696 C70.43712,8.255616 70.5984,7.797376 70.92224,7.441536 C71.24608,7.085696 71.68256,6.906496 72.23296,6.906496 C72.7616,6.906496 73.18784,7.083136 73.50912,7.433856 C73.81504,7.775616 73.96864,8.215936 73.96864,8.754816" id="Fill-38" fill="#FEFEFE" mask="url(#mask-2)"></path>
                        <path d="M78.280448,10.587904 L77.479168,10.587904 L77.479168,8.523264 C77.479168,7.885824 77.238528,7.568384 76.752128,7.568384 C76.514048,7.568384 76.322048,7.655424 76.173568,7.830784 C76.025088,8.004864 75.950848,8.212224 75.950848,8.449024 L75.950848,10.587904 L75.148288,10.587904 L75.148288,8.012544 C75.148288,7.696384 75.139328,7.353344 75.120128,6.982144 L75.824128,6.982144 L75.861248,7.545344 L75.884288,7.545344 C75.977728,7.369984 76.117248,7.224064 76.299008,7.108864 C76.516608,6.974464 76.759808,6.906624 77.027328,6.906624 C77.362688,6.906624 77.643008,7.015424 77.865728,7.234304 C78.143488,7.500544 78.280448,7.898624 78.280448,8.428544 L78.280448,10.587904 Z" id="Fill-39" fill="#FEFEFE" mask="url(#mask-2)"></path>
                        <path d="M83.676672,7.581696 L82.794752,7.581696 L82.794752,9.334016 C82.794752,9.779456 82.950912,10.002176 83.261952,10.002176 C83.405312,10.002176 83.524352,9.990656 83.619072,9.965056 L83.639552,10.573056 C83.482112,10.633216 83.274752,10.662656 83.016192,10.662656 C82.698752,10.662656 82.452992,10.565376 82.275072,10.373376 C82.095872,10.180096 82.007552,9.856256 82.007552,9.400576 L82.007552,7.581696 L81.480192,7.581696 L81.480192,6.981376 L82.007552,6.981376 L82.007552,6.320896 L82.794752,6.082816 L82.794752,6.981376 L83.676672,6.981376 L83.676672,7.581696 Z" id="Fill-40" fill="#FEFEFE" mask="url(#mask-2)"></path>
                        <path d="M87.922944,10.587904 L87.120384,10.587904 L87.120384,8.537344 C87.120384,7.890944 86.878464,7.568384 86.394624,7.568384 C86.022144,7.568384 85.767424,7.755264 85.629184,8.130304 C85.604864,8.209664 85.592064,8.305664 85.592064,8.419584 L85.592064,10.587904 L84.790784,10.587904 L84.790784,5.327104 L85.592064,5.327104 L85.592064,7.500544 L85.606144,7.500544 C85.859584,7.105024 86.220544,6.906624 86.690304,6.906624 C87.021824,6.906624 87.297024,7.015424 87.515904,7.234304 C87.787264,7.505664 87.922944,7.908864 87.922944,8.442624 L87.922944,10.587904 Z" id="Fill-41" fill="#FEFEFE" mask="url(#mask-2)"></path>
                        <path d="M91.53664,8.406656 C91.54304,8.168576 91.49056,7.962496 91.38048,7.790976 C91.24224,7.568256 91.02976,7.456896 90.74304,7.456896 C90.48192,7.456896 90.26816,7.565696 90.10432,7.783296 C89.9712,7.956096 89.89312,8.164736 89.86624,8.406656 L91.53664,8.406656 Z M92.30208,8.614016 C92.30208,8.757376 92.29184,8.878976 92.27136,8.977536 L89.86624,8.977536 C89.87776,9.334656 89.99296,9.606016 90.21568,9.794176 C90.41792,9.963136 90.6816,10.046336 91.00288,10.046336 C91.35744,10.046336 91.68256,9.990016 91.97568,9.874816 L92.10112,10.432896 C91.75936,10.580096 91.35616,10.655616 90.89024,10.655616 C90.33216,10.655616 89.89312,10.490496 89.5744,10.161536 C89.2544,9.832576 89.09568,9.390976 89.09568,8.836736 C89.09568,8.292736 89.24416,7.839616 89.54112,7.477376 C89.85216,7.093376 90.272,6.898816 90.8032,6.898816 C91.3216,6.898816 91.71584,7.093376 91.98208,7.477376 C92.19584,7.785856 92.30208,8.164736 92.30208,8.614016 L92.30208,8.614016 Z" id="Fill-42" fill="#FEFEFE" mask="url(#mask-2)"></path>
                    </g>
                </g>
            </g>
        </g>
    </g>
</svg>