<svg id="Layer_1" data-name="Layer 1" xmlns="http://www.w3.org/2000/svg" viewBox="0 0 24 24"><defs><style>.cls-1{fill:#1f2d3d;}</style></defs><title>Culture</title><path class="cls-1" d="M9.86,7.08A.92.92,0,0,1,10,6.64a.73.73,0,0,1,.38-.31L11,6.12l.72,1.35h.66l.72-1.35.58.21a.73.73,0,0,1,.38.31.93.93,0,0,1,.13.46s.09.78.12,1.53l.41,0c0-.75-.12-1.53-.12-1.53h0a1.27,1.27,0,0,0-.19-.65,1.11,1.11,0,0,0-.59-.49l-.91-.32-.78,1.44h-.16l-.78-1.44-.91.32a1.11,1.11,0,0,0-.59.49,1.26,1.26,0,0,0-.19.63s-.09.79-.12,1.55l.41,0C9.77,7.88,9.86,7.11,9.86,7.08Z"/><path class="cls-1" d="M12,5.57a1.29,1.29,0,1,0-1.28-1.29A1.28,1.28,0,0,0,12,5.57Zm0-2.16a.88.88,0,1,1-.87.87A.87.87,0,0,1,12,3.41Z"/><path class="cls-1" d="M6.64,10a.93.93,0,0,1,.46-.13s.78-.09,1.53-.12l0-.41c-.76,0-1.54.12-1.53.12a1.27,1.27,0,0,0-.65.19,1.11,1.11,0,0,0-.49.59l-.32.91,1.44.78v.16l-1.44.78.32.91a1.11,1.11,0,0,0,.49.59,1.29,1.29,0,0,0,.63.19s.79.09,1.55.12l0-.41c-.75,0-1.52-.12-1.55-.12A.92.92,0,0,1,6.64,14a.73.73,0,0,1-.31-.38l-.21-.58,1.35-.72v-.66L6.12,11l.21-.58A.73.73,0,0,1,6.64,10Z"/><path class="cls-1" d="M4.28,10.72A1.28,1.28,0,1,0,5.57,12,1.28,1.28,0,0,0,4.28,10.72Zm0,2.15A.87.87,0,1,1,5.16,12,.87.87,0,0,1,4.28,12.87Z"/><path class="cls-1" d="M14.36,17.57a1.26,1.26,0,0,0,.19-.63s.09-.79.12-1.55l-.41,0c0,.75-.12,1.52-.12,1.55a.92.92,0,0,1-.13.44.73.73,0,0,1-.38.31l-.58.21-.72-1.35h-.66L11,17.88l-.58-.21a.73.73,0,0,1-.38-.31.93.93,0,0,1-.13-.46s-.09-.78-.12-1.53l-.41,0c0,.75.12,1.53.12,1.53h0a1.27,1.27,0,0,0,.19.65,1.11,1.11,0,0,0,.59.49l.91.32.78-1.44h.16l.78,1.44.91-.32A1.11,1.11,0,0,0,14.36,17.57Z"/><path class="cls-1" d="M12,18.43a1.29,1.29,0,1,0,1.28,1.29A1.28,1.28,0,0,0,12,18.43Zm0,2.16a.88.88,0,1,1,.87-.87A.87.87,0,0,1,12,20.59Z"/><path class="cls-1" d="M18.38,12.86l-1.44-.78v-.16l1.44-.78-.32-.91a1.11,1.11,0,0,0-.49-.59,1.23,1.23,0,0,0-.63-.19s-.79-.09-1.55-.12l0,.41c.75,0,1.52.12,1.55.12a.92.92,0,0,1,.44.13.73.73,0,0,1,.31.38l.21.58-1.35.72v.66l1.35.72-.21.58a.73.73,0,0,1-.31.38.93.93,0,0,1-.46.13s-.78.09-1.53.12l0,.41c.76,0,1.54-.12,1.53-.12a1.27,1.27,0,0,0,.65-.19,1.11,1.11,0,0,0,.49-.59Z"/><path class="cls-1" d="M19.72,10.72A1.28,1.28,0,1,0,21,12,1.28,1.28,0,0,0,19.72,10.72Zm0,2.15a.87.87,0,1,1,.87-.87A.87.87,0,0,1,19.72,12.87Z"/><path class="cls-1" d="M12,8.65A3.35,3.35,0,1,0,15.35,12,3.35,3.35,0,0,0,12,8.65Zm0,6.18A2.83,2.83,0,1,1,14.83,12,2.83,2.83,0,0,1,12,14.83Z"/></svg>