<?xml version="1.0" encoding="UTF-8"?>
<svg width="140px" height="40px" viewBox="0 0 140 40" version="1.1" xmlns="http://www.w3.org/2000/svg" xmlns:xlink="http://www.w3.org/1999/xlink">
    <!-- Generator: Sketch 57.1 (83088) - https://sketch.com -->
    <title>Drivezy header full logo</title>
    <desc>Created with Sketch.</desc>
    <defs>
        <polygon id="path-1" points="0 39.0356829 139.982099 39.0356829 139.982099 0 0 0"></polygon>
    </defs>
    <g id="Drivezy-header-full-logo" stroke="none" stroke-width="1" fill="none" fill-rule="evenodd">
        <rect id="Rectangle" x="0" y="0" width="140" height="40"></rect>
        <g id="Group-14-Copy">
            <path d="M50.2542704,24.77411 C50.5808515,24.77411 50.8761219,24.7429276 51.1404024,24.6804345 C51.4044904,24.6180055 51.6468918,24.5290779 51.8679276,24.414165 C52.088835,24.2987388 52.2976159,24.1547608 52.4946554,23.9820385 C52.6914381,23.8093804 52.8859111,23.6077214 53.0781384,23.3773822 L53.0781384,17.0410669 C52.7324372,16.6666856 52.3650495,16.4050999 51.9760394,16.256374 C51.5869652,16.1075839 51.1763969,16.0330284 50.7442062,16.0330284 C50.3310715,16.0330284 49.9517498,16.1145775 49.6059203,16.2780605 C49.2602191,16.4411586 48.9599441,16.7026801 48.7056086,17.0626893 C48.4508882,17.4227626 48.2516673,17.8907553 48.1076251,18.4667956 C47.9635188,19.0428359 47.8915298,19.7389221 47.8915298,20.5549258 C47.8915298,21.3421852 47.9491467,22.0045225 48.0644445,22.5420018 C48.1796141,23.0798662 48.3404665,23.5140458 48.5470018,23.845439 C48.7535371,24.1764473 49.0009432,24.414165 49.2890917,24.558143 C49.5772401,24.702121 49.8988167,24.77411 50.2542704,24.77411 L50.2542704,24.77411 Z M54.7782209,27.9708836 C54.4995683,27.9708836 54.266791,27.9085188 54.0795041,27.7835967 C53.8922172,27.6590596 53.7601091,27.4720935 53.6832438,27.2222493 L53.3374143,26.0845408 C53.0397058,26.4011769 52.7274968,26.6891971 52.4011082,26.9486013 C52.0743346,27.2076205 51.721319,27.4309019 51.3419973,27.618253 C50.9625472,27.8052191 50.5543529,27.9492612 50.1174785,28.0503153 C49.6803474,28.1509844 49.2073501,28.2012869 48.6982942,28.2012869 C47.9203382,28.2012869 47.1999349,28.0286288 46.5372768,27.6829276 C45.8743621,27.3372264 45.3028772,26.8383721 44.8226939,26.1851457 C44.3422539,25.5326893 43.9654986,24.7333034 43.6917223,23.787758 C43.4180742,22.8421485 43.281154,21.7643025 43.281154,20.5549258 C43.281154,19.4410211 43.4346279,18.4069331 43.7422814,17.4514427 C44.04955,16.496209 44.4841146,15.6707736 45.0461036,14.9746233 C45.6079001,14.2787938 46.2825564,13.734 47.0702007,13.3401778 C47.8576526,12.9467406 48.7271027,12.7498295 49.6779734,12.7498295 C50.4463052,12.7498295 51.097286,12.8626251 51.6301457,13.0881522 C52.1633263,13.3137434 52.6458194,13.6090779 53.0781384,13.9738992 L53.0781384,6.41351421 L57.5445362,6.41351421 L57.5445362,27.9708836 L54.7782209,27.9708836 Z" id="Fill-1" fill="#F05E61"></path>
            <path d="M61.0018497,27.9709028 L61.0018497,13.0378689 L63.6527388,13.0378689 C63.8737104,13.0378689 64.0583666,13.0569248 64.2074134,13.09555 C64.3562676,13.1337259 64.4812539,13.1939734 64.5821155,13.2755225 C64.6828488,13.3570715 64.7596499,13.4651192 64.812583,13.5995371 C64.8653236,13.7340192 64.9108781,13.8971173 64.949439,14.0888955 L65.1942786,15.4860082 C65.7418955,14.6410678 66.3564326,13.9739184 67.0384033,13.4842392 C67.7204381,12.9944959 68.4648378,12.7498488 69.2716664,12.7498488 C69.9534445,12.7498488 70.5010614,12.9129468 70.9140037,13.239528 L70.3377067,16.5226627 C70.2992741,16.7243859 70.222473,16.8661824 70.1072392,16.9473465 C69.9920055,17.0292805 69.8382108,17.0697021 69.646176,17.0697021 C69.4828213,17.0697021 69.2907223,17.0484005 69.0698148,17.0050917 C68.8489716,16.9617186 68.5703831,16.940417 68.234242,16.940417 C67.0622713,16.940417 66.1403373,17.5645784 65.468055,18.8124519 L65.468055,27.9709028 L61.0018497,27.9709028 Z" id="Fill-3" fill="#F05E61"></path>
            <mask id="mask-2" fill="white">
                <use xlink:href="#path-1"></use>
            </mask>
            <g id="Clip-6"></g>
            <path d="M73.0463795,27.9708708 L77.5125848,27.9708708 L77.5125848,13.0378368 L73.0463795,13.0378368 L73.0463795,27.9708708 Z M78.0312007,8.94800183 C78.0312007,9.3031989 77.9590834,9.63715857 77.8150412,9.94904675 C77.6709349,10.2609349 77.4741522,10.5346471 77.2243721,10.7697342 C76.9744638,11.0052062 76.6840697,11.1922365 76.3527406,11.3314665 C76.0214115,11.4706324 75.668396,11.5401192 75.2938222,11.5401192 C74.9286801,11.5401192 74.5878552,11.4706324 74.2709624,11.3314665 C73.9540055,11.1922365 73.6730431,11.0052062 73.428011,10.7697342 C73.1830431,10.5346471 72.9908158,10.2609349 72.851714,9.94904675 C72.7124198,9.63715857 72.6429331,9.3031989 72.6429331,8.94800183 C72.6429331,8.58318057 72.7124198,8.24261228 72.851714,7.9255912 C72.9908158,7.60889093 73.1830431,7.33049496 73.428011,7.09053162 C73.6730431,6.85069661 73.9540055,6.66328139 74.2709624,6.52886343 C74.5878552,6.3943813 74.9286801,6.32714024 75.2938222,6.32714024 C75.668396,6.32714024 76.0214115,6.3943813 76.3527406,6.52886343 C76.6840697,6.66328139 76.9744638,6.85069661 77.2243721,7.09053162 C77.4741522,7.33049496 77.6709349,7.60889093 77.8150412,7.9255912 C77.9590834,8.24261228 78.0312007,8.58318057 78.0312007,8.94800183 L78.0312007,8.94800183 Z" id="Fill-5" fill="#F05E61" mask="url(#mask-2)"></path>
            <path d="M89.3838983,27.9709028 L85.3210752,27.9709028 L79.529297,13.0378689 L83.246483,13.0378689 C83.5632475,13.0378689 83.8299019,13.1124244 84.0460614,13.2608295 C84.2621567,13.4100046 84.4084445,13.5947892 84.4854381,13.8155683 L86.5600302,20.5115078 C86.7232566,21.0589322 86.879297,21.5915995 87.0282796,22.1099588 C87.1771338,22.6283181 87.3043657,23.1467415 87.4101677,23.6654216 C87.5157131,23.1467415 87.6454473,22.6283181 87.7990495,22.1099588 C87.9526517,21.5915995 88.1160706,21.0589322 88.2889853,20.5115078 L90.4499386,13.8155683 C90.5267397,13.5947892 90.6709102,13.4100046 90.8822576,13.2608295 C91.0934125,13.1124244 91.3433208,13.0378689 91.6314693,13.0378689 L95.1757406,13.0378689 L89.3838983,27.9709028 Z" id="Fill-7" fill="#F05E61" mask="url(#mask-2)"></path>
            <path d="M102.955962,15.8890247 C102.100819,15.8890247 101.433413,16.1314262 100.953166,16.6163575 C100.47279,17.1012887 100.155897,17.7996847 100.002295,18.7114812 L105.577978,18.7114812 C105.577978,18.3565408 105.532231,18.0109038 105.441058,17.6747626 C105.349756,17.3386214 105.200838,17.0388598 104.994495,16.7747076 C104.787767,16.5106196 104.516493,16.2971549 104.180609,16.1339927 C103.844082,15.9705738 103.436145,15.8890247 102.955962,15.8890247 M102.869344,12.807549 C103.858583,12.807549 104.764092,12.9610871 105.585164,13.2682273 C106.406429,13.5756884 107.112268,14.0220587 107.703129,14.6072099 C108.293798,15.1931952 108.754862,15.9106471 109.086255,16.7603996 C109.41752,17.6097672 109.583313,18.572572 109.583313,19.6475307 C109.583313,19.9836077 109.568812,20.2573841 109.53994,20.4682181 C109.511324,20.6798222 109.45839,20.8476682 109.381525,20.9722695 C109.304532,21.0971916 109.201424,21.1834885 109.071883,21.2316095 C108.942148,21.2797305 108.776356,21.3035985 108.574761,21.3035985 L99.9591787,21.3035985 C100.103221,22.5516004 100.482478,23.4563391 101.097208,24.0180715 C101.711938,24.5798038 102.504202,24.8604455 103.474513,24.8604455 C103.993129,24.8604455 104.439885,24.7980165 104.814458,24.6730944 C105.188968,24.5485573 105.522671,24.4093272 105.81576,24.2557892 C106.108528,24.1022511 106.377621,23.9630211 106.622524,23.838099 C106.867492,23.7135619 107.124266,23.6507479 107.393294,23.6507479 C107.748555,23.6507479 108.017584,23.780418 108.200059,24.039758 L109.496759,25.6381448 C109.035888,26.1660642 108.538766,26.5958808 108.00565,26.9268891 C107.472533,27.2582181 106.925045,27.5172374 106.363248,27.7045885 C105.801259,27.8915545 105.239527,28.0212887 104.677538,28.0932777 C104.115677,28.1652667 103.580187,28.2013254 103.071131,28.2013254 C102.024211,28.2013254 101.041901,28.0307846 100.124907,27.6903446 C99.2074647,27.3493272 98.4053199,26.8431586 97.7187296,26.1708763 C97.032011,25.4989148 96.4891421,24.6639193 96.0907003,23.6653767 C95.6921302,22.6668983 95.4929093,21.5052576 95.4929093,20.180198 C95.4929093,19.1821045 95.6632576,18.2364308 96.0043391,17.3433694 C96.3450357,16.4506929 96.8350357,15.6681815 97.4738258,14.9962841 C98.1126159,14.3243868 98.8856957,13.7917195 99.7933859,13.3978973 C100.701012,13.0044601 101.72631,12.807549 102.869344,12.807549" id="Fill-8" fill="#F05E61" mask="url(#mask-2)"></path>
            <path d="M123.29886,14.8232796 C123.29886,15.1307406 123.241179,15.4235729 123.125753,15.702033 C123.010711,15.9804931 122.876165,16.2203281 122.722563,16.4220513 L116.483965,24.6587608 L123.154753,24.6587608 L123.154753,27.9708964 L111.340537,27.9708964 L111.340537,26.1565426 C111.340537,25.9743245 111.391096,25.7461668 111.491958,25.4725188 C111.592691,25.1988066 111.734423,24.9376059 111.916898,24.6877617 L118.21292,16.3499982 L111.744112,16.3499982 L111.744112,13.0378625 L123.29886,13.0378625 L123.29886,14.8232796 Z" id="Fill-9" fill="#F05E61" mask="url(#mask-2)"></path>
            <path d="M132.000482,31.84445 C131.865936,32.1420302 131.702774,32.3606279 131.510546,32.4998579 C131.318319,32.639088 131.01105,32.7085105 130.588741,32.7085105 L127.246257,32.7085105 L130.127485,26.6605362 L124.162984,13.0378689 L128.110381,13.0378689 C128.456275,13.0378689 128.725303,13.11467 128.917531,13.2682081 C129.109373,13.4217461 129.243919,13.6043492 129.32072,13.8155683 L131.770015,20.2521677 C132.000482,20.8476489 132.187962,21.4428735 132.332004,22.0379698 C132.427925,21.7308937 132.533855,21.4285014 132.648832,21.1309212 C132.764258,20.8334051 132.874488,20.5310128 132.980354,20.2235518 L135.198924,13.8155683 C135.275661,13.5947892 135.427146,13.4100046 135.652801,13.2608295 C135.878456,13.1124244 136.12105,13.0378689 136.380583,13.0378689 L139.982086,13.0378689 L132.000482,31.84445 Z" id="Fill-10" fill="#F05E61" mask="url(#mask-2)"></path>
            <path d="M12.6774748,33.4265527 C12.6774748,32.2295591 12.9857699,31.1048753 13.5260082,30.1261586 C8.76607241,27.877561 5.47228689,23.0337663 5.47228689,17.4200999 C5.47228689,17.035517 5.48839138,16.6546554 5.51873969,16.2777718 C4.31808891,16.2621806 3.19276352,15.9372676 2.21738313,15.379 C2.13917049,16.0486517 2.09772227,16.7295316 2.09772227,17.4200999 C2.09772227,24.6129047 6.45729148,30.7868277 12.6779239,33.4454161 C12.6779239,33.4390642 12.6774748,33.4329047 12.6774748,33.4265527" id="Fill-11" fill="#F05E61" mask="url(#mask-2)"></path>
            <path d="M19.5178286,36.75555 C17.679286,36.75555 16.1888827,35.2651467 16.1888827,33.4265399 C16.1888827,31.5880614 17.679286,30.097594 19.5178286,30.097594 C21.3563712,30.097594 22.8468387,31.5880614 22.8468387,33.4265399 C22.8468387,35.2651467 21.3563712,36.75555 19.5178286,36.75555 M14.1139698,17.4201512 C14.1139698,14.4356233 16.5333648,12.0162282 19.5178286,12.0162282 C22.5023566,12.0162282 24.9217516,14.4356233 24.9217516,17.4201512 C24.9217516,20.404615 22.5023566,22.8240101 19.5178286,22.8240101 C16.5333648,22.8240101 14.1139698,20.404615 14.1139698,17.4201512 M5.60913016,12.768648 C3.77052337,12.768648 2.28012007,11.2782447 2.28012007,9.43970211 C2.28012007,7.60115949 3.77052337,6.11069203 5.60913016,6.11069203 C7.44760862,6.11069203 8.93807608,7.60115949 8.93807608,9.43970211 C8.93807608,11.2782447 7.44760862,12.768648 5.60913016,12.768648 M21.6611375,28.2424977 L21.6611375,24.7988955 C24.8615041,23.870802 27.2018524,20.9197663 27.2018524,17.4201512 C27.2018524,13.1763291 23.7615866,9.73612741 19.5178286,9.73612741 C17.4687085,9.73612741 15.6084152,10.5398121 14.2308075,11.8471632 L11.1800009,10.0858066 C11.2043822,9.87368928 11.2182411,9.65836389 11.2182411,9.43970211 C11.2182411,6.34186526 8.70690284,3.8305912 5.60913016,3.8305912 C2.51129331,3.8305912 1.9248396e-05,6.34186526 1.9248396e-05,9.43970211 C1.9248396e-05,12.537539 2.51129331,15.048813 5.60913016,15.048813 C6.92713199,15.048813 8.13804858,14.593011 9.09546379,13.8320577 L12.064978,15.5465124 C11.914648,16.1462924 11.8338048,16.7737259 11.8338048,17.4201512 C11.8338048,20.9197663 14.1742172,23.870802 17.3745197,24.7988955 L17.3745197,28.2424977 C15.3402851,29.0844867 13.9087177,31.0879881 13.9087177,33.4265399 C13.9087177,36.5243767 16.4199918,39.0356508 19.5178286,39.0356508 C22.6156654,39.0356508 25.1269395,36.5243767 25.1269395,33.4265399 C25.1269395,31.0879881 23.6953721,29.0844867 21.6611375,28.2424977" id="Fill-12" fill="#F05E61" mask="url(#mask-2)"></path>
            <path d="M19.5178286,1.2832264e-05 C15.5777461,1.2832264e-05 11.9436489,1.30877544 9.02514299,3.51438497 C10.0279203,4.09376169 10.8706792,4.91887626 11.4686627,5.90933456 C13.7481861,4.3123593 16.5233556,3.37457745 19.5178286,3.37457745 C23.9304592,3.37457745 27.867077,5.41003116 30.4419991,8.59256095 L25.9117608,11.2080972 C26.9088277,12.2342291 27.6609908,13.4992979 28.0740614,14.9094354 L32.5992951,12.2967864 C33.2215316,13.8842016 33.5633831,15.6121943 33.5633831,17.420132 C33.5633831,23.0337984 30.2696618,27.8775289 25.5096618,30.1261265 C26.0499643,31.1049074 26.3581952,32.229527 26.3581952,33.4265848 C26.3581952,33.4328726 26.3577461,33.4390962 26.3576819,33.4454482 C32.5783786,30.7868598 36.9379478,24.6128726 36.9379478,17.420132 C36.9379478,7.79927039 29.1386902,1.2832264e-05 19.5178286,1.2832264e-05" id="Fill-13" fill="#F05E61" mask="url(#mask-2)"></path>
        </g>
    </g>
</svg>