<?xml version="1.0" encoding="UTF-8"?>
<svg width="287px" height="40px" viewBox="0 0 287 40" version="1.1" xmlns="http://www.w3.org/2000/svg" xmlns:xlink="http://www.w3.org/1999/xlink">
    <!-- Generator: Sketch 57.1 (83088) - https://sketch.com -->
    <title>List your vehicle</title>
    <desc>Created with Sketch.</desc>
    <g id="List-your-vehicle" stroke="none" stroke-width="1" fill="none" fill-rule="evenodd">
        <rect id="Rectangle" x="0" y="0" width="289" height="40"></rect>
        <g id="Group" transform="translate(2.000000, 2.000000)">
            <path d="M0.5,0.5 L0.5,35.5 L281.761179,35.5 L264.540581,18.8940898 L281.84322,0.5 L0.5,0.5 Z" id="Rectangle" stroke="#F15D61" fill="#FFFFFF"></path>
            <path d="M32.994,22 L32.994,12.662 L34.632,12.662 L34.632,20.558 L38.748,20.558 L38.748,22 L32.994,22 Z M40.918,14.118 C40.428,14.118 40.008,13.712 40.008,13.208 C40.008,12.704 40.428,12.298 40.918,12.298 C41.422,12.298 41.828,12.704 41.828,13.208 C41.828,13.712 41.422,14.118 40.918,14.118 Z M40.19,22 L40.19,15.238 L41.66,15.238 L41.66,22 L40.19,22 Z M42.976,21.118 L43.648,20.054 C44.124,20.544 45.062,21.006 45.944,21.006 C46.826,21.006 47.274,20.684 47.274,20.18 C47.274,19.592 46.56,19.382 45.734,19.2 C44.572,18.948 43.186,18.64 43.186,17.128 C43.186,16.022 44.138,15.07 45.846,15.07 C46.994,15.07 47.862,15.476 48.478,16.022 L47.862,17.058 C47.456,16.596 46.7,16.246 45.86,16.246 C45.09,16.246 44.6,16.526 44.6,17.002 C44.6,17.52 45.272,17.702 46.07,17.884 C47.246,18.136 48.688,18.472 48.688,20.068 C48.688,21.258 47.694,22.168 45.874,22.168 C44.726,22.168 43.676,21.804 42.976,21.118 Z M52.202,22.168 C51.068,22.168 50.466,21.552 50.466,20.432 L50.466,16.526 L49.346,16.526 L49.346,15.238 L50.466,15.238 L50.466,13.39 L51.936,13.39 L51.936,15.238 L53.308,15.238 L53.308,16.526 L51.936,16.526 L51.936,20.068 C51.936,20.53 52.16,20.866 52.58,20.866 C52.86,20.866 53.126,20.754 53.238,20.628 L53.588,21.734 C53.322,21.986 52.888,22.168 52.202,22.168 Z M58.166,23.33 C58.32,23.4 58.558,23.442 58.726,23.442 C59.188,23.442 59.496,23.302 59.692,22.854 L60.028,22.084 L57.256,15.238 L58.824,15.238 L60.798,20.306 L62.772,15.238 L64.354,15.238 L61.092,23.218 C60.63,24.366 59.818,24.73 58.768,24.744 C58.558,24.744 58.152,24.702 57.942,24.646 L58.166,23.33 Z M68.33,22.168 C66.188,22.168 64.858,20.558 64.858,18.612 C64.858,16.68 66.188,15.07 68.33,15.07 C70.5,15.07 71.816,16.68 71.816,18.612 C71.816,20.558 70.5,22.168 68.33,22.168 Z M68.33,20.866 C69.59,20.866 70.29,19.816 70.29,18.612 C70.29,17.422 69.59,16.372 68.33,16.372 C67.084,16.372 66.384,17.422 66.384,18.612 C66.384,19.816 67.084,20.866 68.33,20.866 Z M77.864,22 L77.864,21.104 C77.374,21.65 76.534,22.168 75.47,22.168 C74.014,22.168 73.3,21.412 73.3,20.026 L73.3,15.238 L74.77,15.238 L74.77,19.494 C74.77,20.544 75.302,20.866 76.128,20.866 C76.87,20.866 77.514,20.446 77.864,19.984 L77.864,15.238 L79.334,15.238 L79.334,22 L77.864,22 Z M81.238,22 L81.238,15.238 L82.708,15.238 L82.708,16.232 C83.212,15.588 84.024,15.084 84.906,15.084 L84.906,16.54 C84.78,16.512 84.626,16.498 84.444,16.498 C83.828,16.498 83.002,16.918 82.708,17.394 L82.708,22 L81.238,22 Z M91.472,22 L88.714,15.238 L90.282,15.238 L92.256,20.306 L94.23,15.238 L95.812,15.238 L93.054,22 L91.472,22 Z M96.316,18.612 C96.316,16.652 97.744,15.07 99.746,15.07 C101.776,15.07 103.078,16.624 103.078,18.752 L103.078,19.102 L97.856,19.102 C97.968,20.124 98.738,20.964 100.012,20.964 C100.67,20.964 101.454,20.698 101.93,20.222 L102.602,21.188 C101.93,21.832 100.936,22.168 99.858,22.168 C97.828,22.168 96.316,20.754 96.316,18.612 Z M99.746,16.274 C98.486,16.274 97.912,17.24 97.842,18.066 L101.65,18.066 C101.622,17.268 101.076,16.274 99.746,16.274 Z M109.112,22 L109.112,17.744 C109.112,16.694 108.566,16.372 107.74,16.372 C106.998,16.372 106.354,16.82 106.004,17.282 L106.004,22 L104.534,22 L104.534,12.662 L106.004,12.662 L106.004,16.162 C106.452,15.63 107.334,15.07 108.398,15.07 C109.854,15.07 110.582,15.826 110.582,17.212 L110.582,22 L109.112,22 Z M113.214,14.118 C112.724,14.118 112.304,13.712 112.304,13.208 C112.304,12.704 112.724,12.298 113.214,12.298 C113.718,12.298 114.124,12.704 114.124,13.208 C114.124,13.712 113.718,14.118 113.214,14.118 Z M112.486,22 L112.486,15.238 L113.956,15.238 L113.956,22 L112.486,22 Z M115.44,18.612 C115.44,16.568 116.882,15.07 118.94,15.07 C120.256,15.07 121.054,15.63 121.53,16.274 L120.564,17.17 C120.186,16.638 119.668,16.372 119.01,16.372 C117.778,16.372 116.966,17.296 116.966,18.612 C116.966,19.928 117.778,20.866 119.01,20.866 C119.668,20.866 120.186,20.586 120.564,20.068 L121.53,20.964 C121.054,21.608 120.256,22.168 118.94,22.168 C116.882,22.168 115.44,20.67 115.44,18.612 Z M122.818,22 L122.818,12.662 L124.288,12.662 L124.288,22 L122.818,22 Z M125.772,18.612 C125.772,16.652 127.2,15.07 129.202,15.07 C131.232,15.07 132.534,16.624 132.534,18.752 L132.534,19.102 L127.312,19.102 C127.424,20.124 128.194,20.964 129.468,20.964 C130.126,20.964 130.91,20.698 131.386,20.222 L132.058,21.188 C131.386,21.832 130.392,22.168 129.314,22.168 C127.284,22.168 125.772,20.754 125.772,18.612 Z M129.202,16.274 C127.942,16.274 127.368,17.24 127.298,18.066 L131.106,18.066 C131.078,17.268 130.532,16.274 129.202,16.274 Z M141.718,22 L141.718,21.272 C141.214,21.846 140.43,22.168 139.534,22.168 C138.428,22.168 137.182,21.426 137.182,19.928 C137.182,18.374 138.428,17.73 139.534,17.73 C140.444,17.73 141.228,18.024 141.718,18.598 L141.718,17.59 C141.718,16.806 141.074,16.33 140.136,16.33 C139.38,16.33 138.722,16.61 138.134,17.184 L137.532,16.162 C138.316,15.42 139.296,15.07 140.374,15.07 C141.872,15.07 143.188,15.7 143.188,17.52 L143.188,22 L141.718,22 Z M141.718,20.46 L141.718,19.438 C141.382,18.976 140.752,18.738 140.108,18.738 C139.282,18.738 138.666,19.214 138.666,19.956 C138.666,20.684 139.282,21.16 140.108,21.16 C140.752,21.16 141.382,20.922 141.718,20.46 Z M149.656,22 L149.656,17.772 C149.656,16.722 149.124,16.372 148.298,16.372 C147.542,16.372 146.898,16.82 146.562,17.282 L146.562,22 L145.092,22 L145.092,15.238 L146.562,15.238 L146.562,16.162 C147.01,15.63 147.878,15.07 148.942,15.07 C150.398,15.07 151.126,15.854 151.126,17.24 L151.126,22 L149.656,22 Z M157.79,22 L157.79,21.076 C157.272,21.748 156.488,22.168 155.62,22.168 C153.884,22.168 152.61,20.852 152.61,18.626 C152.61,16.442 153.87,15.07 155.62,15.07 C156.46,15.07 157.244,15.462 157.79,16.176 L157.79,12.662 L159.26,12.662 L159.26,22 L157.79,22 Z M157.79,19.97 L157.79,17.282 C157.454,16.778 156.74,16.372 156.04,16.372 C154.878,16.372 154.136,17.31 154.136,18.626 C154.136,19.928 154.878,20.866 156.04,20.866 C156.74,20.866 157.454,20.474 157.79,19.97 Z M164.174,21.118 L164.846,20.054 C165.322,20.544 166.26,21.006 167.142,21.006 C168.024,21.006 168.472,20.684 168.472,20.18 C168.472,19.592 167.758,19.382 166.932,19.2 C165.77,18.948 164.384,18.64 164.384,17.128 C164.384,16.022 165.336,15.07 167.044,15.07 C168.192,15.07 169.06,15.476 169.676,16.022 L169.06,17.058 C168.654,16.596 167.898,16.246 167.058,16.246 C166.288,16.246 165.798,16.526 165.798,17.002 C165.798,17.52 166.47,17.702 167.268,17.884 C168.444,18.136 169.886,18.472 169.886,20.068 C169.886,21.258 168.892,22.168 167.072,22.168 C165.924,22.168 164.874,21.804 164.174,21.118 Z M173.4,22.168 C172.266,22.168 171.664,21.552 171.664,20.432 L171.664,16.526 L170.544,16.526 L170.544,15.238 L171.664,15.238 L171.664,13.39 L173.134,13.39 L173.134,15.238 L174.506,15.238 L174.506,16.526 L173.134,16.526 L173.134,20.068 C173.134,20.53 173.358,20.866 173.778,20.866 C174.058,20.866 174.324,20.754 174.436,20.628 L174.786,21.734 C174.52,21.986 174.086,22.168 173.4,22.168 Z M179.966,22 L179.966,21.272 C179.462,21.846 178.678,22.168 177.782,22.168 C176.676,22.168 175.43,21.426 175.43,19.928 C175.43,18.374 176.676,17.73 177.782,17.73 C178.692,17.73 179.476,18.024 179.966,18.598 L179.966,17.59 C179.966,16.806 179.322,16.33 178.384,16.33 C177.628,16.33 176.97,16.61 176.382,17.184 L175.78,16.162 C176.564,15.42 177.544,15.07 178.622,15.07 C180.12,15.07 181.436,15.7 181.436,17.52 L181.436,22 L179.966,22 Z M179.966,20.46 L179.966,19.438 C179.63,18.976 179,18.738 178.356,18.738 C177.53,18.738 176.914,19.214 176.914,19.956 C176.914,20.684 177.53,21.16 178.356,21.16 C179,21.16 179.63,20.922 179.966,20.46 Z M183.34,22 L183.34,15.238 L184.81,15.238 L184.81,16.232 C185.314,15.588 186.126,15.084 187.008,15.084 L187.008,16.54 C186.882,16.512 186.728,16.498 186.546,16.498 C185.93,16.498 185.104,16.918 184.81,17.394 L184.81,22 L183.34,22 Z M190.228,22.168 C189.094,22.168 188.492,21.552 188.492,20.432 L188.492,16.526 L187.372,16.526 L187.372,15.238 L188.492,15.238 L188.492,13.39 L189.962,13.39 L189.962,15.238 L191.334,15.238 L191.334,16.526 L189.962,16.526 L189.962,20.068 C189.962,20.53 190.186,20.866 190.606,20.866 C190.886,20.866 191.152,20.754 191.264,20.628 L191.614,21.734 C191.348,21.986 190.914,22.168 190.228,22.168 Z M195.842,18.612 C195.842,16.652 197.27,15.07 199.272,15.07 C201.302,15.07 202.604,16.624 202.604,18.752 L202.604,19.102 L197.382,19.102 C197.494,20.124 198.264,20.964 199.538,20.964 C200.196,20.964 200.98,20.698 201.456,20.222 L202.128,21.188 C201.456,21.832 200.462,22.168 199.384,22.168 C197.354,22.168 195.842,20.754 195.842,18.612 Z M199.272,16.274 C198.012,16.274 197.438,17.24 197.368,18.066 L201.176,18.066 C201.148,17.268 200.602,16.274 199.272,16.274 Z M208.19,22 L208.19,21.272 C207.686,21.846 206.902,22.168 206.006,22.168 C204.9,22.168 203.654,21.426 203.654,19.928 C203.654,18.374 204.9,17.73 206.006,17.73 C206.916,17.73 207.7,18.024 208.19,18.598 L208.19,17.59 C208.19,16.806 207.546,16.33 206.608,16.33 C205.852,16.33 205.194,16.61 204.606,17.184 L204.004,16.162 C204.788,15.42 205.768,15.07 206.846,15.07 C208.344,15.07 209.66,15.7 209.66,17.52 L209.66,22 L208.19,22 Z M208.19,20.46 L208.19,19.438 C207.854,18.976 207.224,18.738 206.58,18.738 C205.754,18.738 205.138,19.214 205.138,19.956 C205.138,20.684 205.754,21.16 206.58,21.16 C207.224,21.16 207.854,20.922 208.19,20.46 Z M211.564,22 L211.564,15.238 L213.034,15.238 L213.034,16.232 C213.538,15.588 214.35,15.084 215.232,15.084 L215.232,16.54 C215.106,16.512 214.952,16.498 214.77,16.498 C214.154,16.498 213.328,16.918 213.034,17.394 L213.034,22 L211.564,22 Z M220.986,22 L220.986,17.772 C220.986,16.722 220.454,16.372 219.628,16.372 C218.872,16.372 218.228,16.82 217.892,17.282 L217.892,22 L216.422,22 L216.422,15.238 L217.892,15.238 L217.892,16.162 C218.34,15.63 219.208,15.07 220.272,15.07 C221.728,15.07 222.456,15.854 222.456,17.24 L222.456,22 L220.986,22 Z M225.088,14.118 C224.598,14.118 224.178,13.712 224.178,13.208 C224.178,12.704 224.598,12.298 225.088,12.298 C225.592,12.298 225.998,12.704 225.998,13.208 C225.998,13.712 225.592,14.118 225.088,14.118 Z M224.36,22 L224.36,15.238 L225.83,15.238 L225.83,22 L224.36,22 Z M232.298,22 L232.298,17.772 C232.298,16.722 231.766,16.372 230.94,16.372 C230.184,16.372 229.54,16.82 229.204,17.282 L229.204,22 L227.734,22 L227.734,15.238 L229.204,15.238 L229.204,16.162 C229.652,15.63 230.52,15.07 231.584,15.07 C233.04,15.07 233.768,15.854 233.768,17.24 L233.768,22 L232.298,22 Z M235.588,23.736 L236.274,22.672 C236.82,23.302 237.52,23.54 238.416,23.54 C239.382,23.54 240.418,23.092 240.418,21.706 L240.418,20.894 C239.9,21.566 239.13,22.014 238.248,22.014 C236.526,22.014 235.252,20.768 235.252,18.542 C235.252,16.358 236.512,15.07 238.248,15.07 C239.102,15.07 239.872,15.462 240.418,16.176 L240.418,15.238 L241.888,15.238 L241.888,21.65 C241.888,24.086 240.082,24.744 238.416,24.744 C237.268,24.744 236.414,24.492 235.588,23.736 Z M240.418,19.802 L240.418,17.282 C240.096,16.778 239.368,16.372 238.682,16.372 C237.52,16.372 236.778,17.24 236.778,18.542 C236.778,19.844 237.52,20.712 238.682,20.712 C239.368,20.712 240.096,20.306 240.418,19.802 Z" id="Listyourvehicleandstartearning" fill="#F15D61" fill-rule="nonzero"></path>
        </g>
    </g>
</svg>