<?xml version="1.0" encoding="UTF-8"?>
<svg width="30px" height="30px" viewBox="0 0 30 30" version="1.1" xmlns="http://www.w3.org/2000/svg" xmlns:xlink="http://www.w3.org/1999/xlink">
    <!-- Generator: Sketch 56.3 (81716) - https://sketch.com -->
    <title>Group 36</title>
    <desc>Created with Sketch.</desc>
    <g id="Homepage" stroke="none" stroke-width="1" fill="none" fill-rule="evenodd">
        <g id="homepage-3" transform="translate(-1186.000000, -3459.000000)">
            <g id="Group-25" transform="translate(0.000000, 3096.000000)">
                <g id="Group-45" transform="translate(128.000000, 364.000000)">
                    <g id="Group-13" transform="translate(1059.000000, 0.000000)">
                        <g id="Group-36" transform="translate(0.381913, 0.382830)">
                            <path d="M13.754386,-6.39488462e-14 C21.3513918,-6.39488462e-14 27.5087719,6.15738012 27.5087719,13.754386 C27.5087719,21.3513918 21.3513918,27.5087719 13.754386,27.5087719 C6.15738012,27.5087719 4.61852778e-14,21.3513918 4.61852778e-14,13.754386 C4.61852778e-14,6.15738012 6.15738012,-6.39488462e-14 13.754386,-6.39488462e-14 Z" id="Stroke-5" stroke="#FDFEFE"></path>
                            <path d="M15.428906,9.46806082 L17.2016936,9.46806082 L17.2016936,6.85014269 L15.11714,6.85014269 L15.11714,6.85931228 C12.5939743,6.94947992 12.0758924,8.36770994 12.0300444,9.85929669 L12.0239314,9.85929669 L12.0239314,11.1659634 L10.3046331,11.1659634 L10.3046331,13.7303922 L12.0239314,13.7303922 L12.0239314,20.6045287 L14.615869,20.6045287 L14.615869,13.7303922 L16.7386292,13.7303922 L17.1482043,11.1659634 L14.6173973,11.1659634 L14.6173973,10.3758503 C14.6173973,9.87305107 14.9520873,9.46806082 15.428906,9.46806082 Z" id="Stroke-7" fill="#FFFFFF"></path>
                        </g>
                    </g>
                </g>
            </g>
        </g>
    </g>
</svg>