<?xml version="1.0" encoding="UTF-8"?>
<svg width="30px" height="30px" viewBox="0 0 30 30" version="1.1" xmlns="http://www.w3.org/2000/svg" xmlns:xlink="http://www.w3.org/1999/xlink">
    <!-- Generator: Sketch 56.3 (81716) - https://sketch.com -->
    <title>Group 37</title>
    <desc>Created with Sketch.</desc>
    <g id="Homepage" stroke="none" stroke-width="1" fill="none" fill-rule="evenodd">
        <g id="homepage-3" transform="translate(-1282.000000, -3459.000000)">
            <g id="Group-25" transform="translate(0.000000, 3096.000000)">
                <g id="Group-45" transform="translate(128.000000, 364.000000)">
                    <g id="Group-13" transform="translate(1059.000000, 0.000000)">
                        <g id="Group-37" transform="translate(96.428332, 0.382830)">
                            <path d="M13.754386,-6.39488462e-14 C21.3513918,-6.39488462e-14 27.5087719,6.15738012 27.5087719,13.754386 C27.5087719,21.3513918 21.3513918,27.5087719 13.754386,27.5087719 C6.15738012,27.5087719 -6.39488462e-14,21.3513918 -6.39488462e-14,13.754386 C-6.39488462e-14,6.15738012 6.15738012,-6.39488462e-14 13.754386,-6.39488462e-14 Z" id="Stroke-9" stroke="#FEFEFE"></path>
                            <path d="M19.3435571,18.6242027 C19.3435571,19.380694 18.7291945,19.9950565 17.971175,19.9950565 L9.50917115,19.9950565 C8.75267992,19.9950565 8.13678908,19.3822222 8.13678908,18.6242027 L8.13678908,12.8122105 L10.125062,12.8122105 C9.94167018,13.2661053 9.83621988,13.8865809 9.83621988,14.406191 C9.83621988,16.5641014 11.5921965,18.3216062 13.7516351,18.3216062 C15.9110737,18.3216062 17.665522,16.5641014 17.665522,14.406191 C17.665522,13.8865809 17.5616,13.2661053 17.3782082,12.8122105 L19.3420288,12.8122105 L19.3420288,18.6242027 L19.3435571,18.6242027 Z M13.7546916,12.0113996 C15.739908,12.0113996 16.149483,13.875883 16.149483,14.406191 C16.149483,15.7266121 15.0751127,16.8025107 13.7546916,16.8025107 C12.4342706,16.8025107 11.3583719,15.7266121 11.3583719,14.406191 C11.3583719,13.875883 11.767947,12.0113996 13.7546916,12.0113996 Z M19.0165084,8.8494191 L19.3298027,8.84789084 L19.3298027,11.2228148 L16.9365396,11.2319844 L16.9288982,8.85553216 L19.0165084,8.8494191 Z M18.1453973,7.24779727 L9.3624577,7.24779727 C7.83572086,7.24779727 6.59629786,8.48874854 6.59629786,10.0139571 L6.59629786,18.798425 C6.59629786,20.3236335 7.83724912,21.5645848 9.3624577,21.5645848 L18.1453973,21.5645848 C19.6721341,21.5645848 20.9130854,20.3236335 20.9130854,18.798425 L20.9130854,10.0139571 C20.9130854,8.48874854 19.6706058,7.24779727 18.1453973,7.24779727 Z" id="Stroke-11" fill="#FFFFFF"></path>
                        </g>
                    </g>
                </g>
            </g>
        </g>
    </g>
</svg>