<svg id="Layer_1" data-name="Layer 1" xmlns="http://www.w3.org/2000/svg" viewBox="0 0 24 24"><defs><style>.cls-1{fill:#1f2d3d;}</style></defs><title>Jobs</title><path class="cls-1" d="M20.1,6.6H16.2V5.4a1.5,1.5,0,0,0-1.5-1.5H9.3A1.5,1.5,0,0,0,7.8,5.4V6.6H3.9a.9.9,0,0,0-.9.9v6.68a.88.88,0,0,0,.6.84V19.2a.9.9,0,0,0,.9.9h15a.9.9,0,0,0,.9-.9V15a.91.91,0,0,0,.6-.85V7.5A.9.9,0,0,0,20.1,6.6ZM8.4,5.4a.9.9,0,0,1,.9-.9h5.4a.9.9,0,0,1,.9.9V6.6H15V5.4a.29.29,0,0,0-.3-.3H9.3a.29.29,0,0,0-.3.3V6.6H8.4Zm6,1.2H9.6V5.7h4.8Zm5.4,12.6a.29.29,0,0,1-.3.3H4.5a.29.29,0,0,1-.3-.3V15.13l6.6.91v.76a.9.9,0,0,0,.9.9h.6a.9.9,0,0,0,.9-.9V16l6.6-.91Zm-7.2-2.4a.29.29,0,0,1-.3.3h-.6a.29.29,0,0,1-.3-.3V15a.29.29,0,0,1,.3-.3h.6a.29.29,0,0,1,.3.3Zm7.8-2.62a.31.31,0,0,1-.26.3h-.08l-6.86.94V15a.9.9,0,0,0-.9-.9h-.6a.9.9,0,0,0-.9.9v.43l-6.94-.95a.31.31,0,0,1-.26-.3V7.5a.29.29,0,0,1,.3-.3H20.1a.29.29,0,0,1,.3.3Z"/></svg>