<svg id="Layer_1" data-name="Layer 1" xmlns="http://www.w3.org/2000/svg" viewBox="0 0 24 24"><defs><style>.cls-1{fill:#1f2d3d;}</style></defs><title>List your car</title><path class="cls-1" d="M21,15.42h-.54v-2H19.27l-1.65-2.84H10.84L9.2,13.42H5.84v2h-.4V16.6h.4v.7H8.2a1.49,1.49,0,0,0,2.93,0h4.35a1.49,1.49,0,0,0,2.93,0h2.06v-.7H21V15.42ZM9.66,17.91a.9.9,0,1,1,0-1.8.9.9,0,1,1,0,1.8Zm7.28,0a.9.9,0,1,1,0-1.8.9.9,0,1,1,0,1.8Zm2.93-1.2H18.4a1.49,1.49,0,0,0-2.92,0H11.12a1.49,1.49,0,0,0-2.92,0H6.43V14H9.54l1.64-2.84h6.1L18.93,14h.94v2.7ZM17.24,12.2l1,1.74h-1ZM14,11.72h2.66v2.22H14Zm-2.48,0H13.4v2.22H10.22ZM9.27,5.5H3v7.14H9.27Zm-.59,6.55H3.59v-6H8.68ZM5.1,9.83h3v.59h-3Zm0,1.07h3v.59h-3Zm-.56-.48H4.15V9.83h.39Zm0,1.07H4.15V10.9h.39Zm1-2.32L4.19,7.94l.39-.44,1,.89L7.69,6.57,8.07,7Z"/></svg>