<?xml version="1.0" encoding="UTF-8"?>
<svg width="20px" height="20px" viewBox="0 0 20 20" version="1.1" xmlns="http://www.w3.org/2000/svg" xmlns:xlink="http://www.w3.org/1999/xlink">
    <!-- Generator: Sketch 56.3 (81716) - https://sketch.com -->
    <title>mail</title>
    <desc>Created with Sketch.</desc>
    <g id="mail" stroke="none" stroke-width="1" fill="none" fill-rule="evenodd">
        <path d="M17.4,3 L2.2,3 C1.5372583,3 1,3.5372583 1,4.2 L1,15.4 C1,16.0627417 1.5372583,16.6 2.2,16.6 L17.4,16.6 C18.0627417,16.6 18.6,16.0627417 18.6,15.4 L18.6,4.2 C18.6,3.5372583 18.0627417,3 17.4,3 Z M17.4,14.552 L14.224,11.376 C13.9875922,11.1557129 13.6191922,11.1622129 13.3907026,11.3907026 C13.1622129,11.6191922 13.1557129,11.9875922 13.376,12.224 L16.552,15.4 L3.048,15.4 L6.224,12.224 C6.44428709,11.9875922 6.4377871,11.6191922 6.20929744,11.3907026 C5.98080778,11.1622129 5.6124078,11.1557129 5.376,11.376 L2.2,14.552 L2.2,6.852 L9.4,12.28 C9.61333333,12.44 9.90666667,12.44 10.12,12.28 L17.392,6.848 L17.4,14.552 Z M17.4,4.2 L17.4,5.352 L9.772,11.052 L2.2,5.352 L2.2,4.2 L17.4,4.2 Z" id="Shape" fill="#B8C1CB"></path>
    </g>
</svg>