<svg id="Layer_1" data-name="Layer 1" xmlns="http://www.w3.org/2000/svg" viewBox="0 0 24 24"><defs><style>.cls-1{fill:#1f2d3d;}</style></defs><title>Partner Dashboard</title><path class="cls-1" d="M17.56,7.66h0a2.18,2.18,0,0,0-1.05-.26,2.24,2.24,0,1,0,2.22,2.52h0a2.62,2.62,0,0,0,0-.28A2.24,2.24,0,0,0,17.56,7.66Zm0,.88a1.43,1.43,0,0,1,.46.9l-.89-.11Zm-1,2.58a1.49,1.49,0,0,1,0-3,1.42,1.42,0,0,1,.36,0l-.69,1.27a.39.39,0,0,0,0,.35.36.36,0,0,0,.29.2l1.43.18A1.5,1.5,0,0,1,16.49,11.12Z"/><path class="cls-1" d="M10.85,10a.37.37,0,0,0-.37.38v4.5a.36.36,0,0,0,.37.37.37.37,0,0,0,.38-.37v-4.5A.38.38,0,0,0,10.85,10Z"/><path class="cls-1" d="M6.35,13a.37.37,0,0,0-.37.38v1.5a.36.36,0,0,0,.37.37.37.37,0,0,0,.38-.37v-1.5A.38.38,0,0,0,6.35,13Z"/><path class="cls-1" d="M18.35,13H14.6a.38.38,0,0,0-.37.38.37.37,0,0,0,.37.37h3.75a.37.37,0,0,0,.38-.37A.38.38,0,0,0,18.35,13Z"/><path class="cls-1" d="M18.35,14.47H14.6a.38.38,0,0,0-.37.38.37.37,0,0,0,.37.37h3.75a.37.37,0,0,0,.38-.37A.38.38,0,0,0,18.35,14.47Z"/><path class="cls-1" d="M9.35,11.47a.37.37,0,0,0-.37.38v3a.36.36,0,0,0,.37.37.37.37,0,0,0,.38-.37v-3A.38.38,0,0,0,9.35,11.47Z"/><path class="cls-1" d="M12.35,7.72A.37.37,0,0,0,12,8.1v6.75a.36.36,0,0,0,.37.37.37.37,0,0,0,.38-.37V8.1A.38.38,0,0,0,12.35,7.72Z"/><path class="cls-1" d="M7.85,10.72a.37.37,0,0,0-.37.38v3.75a.36.36,0,0,0,.37.37.37.37,0,0,0,.38-.37V11.1A.38.38,0,0,0,7.85,10.72Z"/><path class="cls-1" d="M19.42,4.72H4.58A1.62,1.62,0,0,0,3,6.36V16a1.49,1.49,0,0,0,1.58,1.52H19.42A1.49,1.49,0,0,0,21,16V6.36A1.62,1.62,0,0,0,19.42,4.72ZM20.25,16a.76.76,0,0,1-.83.77H4.58A.76.76,0,0,1,3.75,16V6.36a.86.86,0,0,1,.83-.89H19.42a.86.86,0,0,1,.83.89Z"/><path class="cls-1" d="M15.13,18.53H8.87a.37.37,0,0,0-.38.37.38.38,0,0,0,.38.38h6.26a.38.38,0,0,0,.38-.38A.37.37,0,0,0,15.13,18.53Z"/></svg>