<?xml version="1.0" encoding="UTF-8"?>
<svg width="20px" height="20px" viewBox="0 0 20 20" version="1.1" xmlns="http://www.w3.org/2000/svg" xmlns:xlink="http://www.w3.org/1999/xlink">
    <!-- Generator: Sketch 56.3 (81716) - https://sketch.com -->
    <title>phone</title>
    <desc>Created with Sketch.</desc>
    <g id="phone" stroke="none" stroke-width="1" fill="none" fill-rule="evenodd">
        <g id="Group-11" transform="translate(1.000000, 2.000000)" stroke="#B8C1CB">
            <path d="M13.2526232,6.82504 L4.91578105,6.82504 L3.09834947,12.39624 C3.05439158,12.50104 3.25599158,14.32264 3.34390737,14.81224 C3.37801263,15.00424 4.84984421,15.62504 4.91578105,15.62504 L13.2526232,15.62504 C13.3026442,15.62504 14.7327916,15.13624 14.7327916,15.13624 C14.7327916,15.13624 15.0056337,15.00424 15.0404968,14.81224 C15.1958653,13.94584 15.2936337,13.07704 15.3307705,12.71784 C15.3428968,12.60584 15.3262232,12.49304 15.2830232,12.38904 L13.2526232,6.82504 Z" id="Stroke-1" stroke-linejoin="round"></path>
            <path d="M9.21266526,8.81648 C7.64003368,8.81648 6.36601263,9.92768 6.36601263,11.29888 C6.36601263,12.67008 7.64003368,13.78208 9.21266526,13.78208 C10.7852968,13.78208 12.0593179,12.67008 12.0593179,11.29888 C12.0593179,9.92768 10.7852968,8.81648 9.21266526,8.81648 Z" id="Stroke-3"></path>
            <path d="M17.7944589,3.84144 C17.7353432,3.60144 17.5254063,3.40064 17.2806063,3.22144 C15.1001432,1.62464 11.9427537,0.39984 9.09458526,0.39984 C6.24717474,0.39984 3.09205895,1.55024 0.908564211,3.22144 C0.667553684,3.40544 0.453827368,3.60144 0.394711579,3.84144 C0.374248421,3.92704 0.36288,4.05104 0.429574737,4.15744 L1.58763789,6.07664 C1.68768,6.23904 1.86730105,6.33104 2.08026947,6.33104 C2.18106947,6.33104 3.71883789,5.57104 4.51386947,5.28384 C4.83976421,5.16464 5.03681684,4.83104 4.96405895,4.52784 L4.81399579,3.93504 C4.76397474,3.73264 4.79277474,3.51424 4.89433263,3.33504 C5.28464842,2.64544 8.39201684,2.51024 9.09458526,2.51024 C9.82368,2.51024 13.0197221,2.63424 13.4100379,3.32464 C13.5123537,3.50384 13.5411537,3.72224 13.4903747,3.92384 C13.3592589,4.44144 13.3941221,4.30144 13.3418274,4.51184 C13.2683116,4.82064 13.4653642,5.15424 13.7897432,5.27264 C14.5006484,5.52944 15.0819537,5.85984 15.7451116,6.23344 C16.0369011,6.39744 16.4287326,6.35664 16.5992589,6.08144 C16.5992589,6.08144 16.6189642,6.04784 17.7626274,4.15264 C17.8262905,4.05104 17.8149221,3.92704 17.7944589,3.84144 Z" id="Stroke-5"></path>
            <path d="M7.18946526,5.22504 L7.18946526,6.82504" id="Stroke-7" stroke-linecap="round" stroke-linejoin="round"></path>
            <path d="M11.7368337,5.22504 L11.7368337,6.82504" id="Stroke-9" stroke-linecap="round" stroke-linejoin="round"></path>
        </g>
    </g>
</svg>