<?xml version="1.0" encoding="UTF-8"?>
<svg width="104px" height="31px" viewBox="0 0 104 31" version="1.1" xmlns="http://www.w3.org/2000/svg" xmlns:xlink="http://www.w3.org/1999/xlink">
    <!-- Generator: Sketch 56.3 (81716) - https://sketch.com -->
    <title>Group 21</title>
    <desc>Created with Sketch.</desc>
    <defs>
        <polygon id="path-1" points="0 30.886784 103.48288 30.886784 103.48288 0.000384 0 0.000384"></polygon>
    </defs>
    <g id="Homepage" stroke="none" stroke-width="1" fill="none" fill-rule="evenodd">
        <g id="homepage-3" transform="translate(-248.000000, -3355.000000)">
            <g id="Group-25" transform="translate(0.000000, 3096.000000)">
                <g id="Group-24" transform="translate(128.000000, 259.000000)">
                    <g id="Group-21" transform="translate(120.000000, 0.000000)">
                        <path d="M99.502464,0.160512 L3.981184,0.160512 C1.879424,0.160512 0.160384,1.879552 0.160384,3.980032 L0.160384,26.906112 C0.160384,29.006592 1.879424,30.726912 3.981184,30.726912 L99.502464,30.726912 C101.604224,30.726912 103.321984,29.006592 103.321984,26.906112 L103.321984,3.980032 C103.321984,1.879552 101.604224,0.160512 99.502464,0.160512 M99.502464,0.772352 C101.271424,0.772352 102.711424,2.211072 102.711424,3.980032 L102.711424,26.906112 C102.711424,28.675072 101.271424,30.115072 99.502464,30.115072 L3.981184,30.115072 C2.210944,30.115072 0.770944,28.675072 0.770944,26.906112 L0.770944,3.980032 C0.770944,2.211072 2.210944,0.772352 3.981184,0.772352 L99.502464,0.772352" id="Fill-1" fill="#FEFEFE"></path>
                        <path d="M99.502464,0.160512 L3.981184,0.160512 C1.879424,0.160512 0.160384,1.879552 0.160384,3.980032 L0.160384,26.906112 C0.160384,29.006592 1.879424,30.726912 3.981184,30.726912 L99.502464,30.726912 C101.604224,30.726912 103.321984,29.006592 103.321984,26.906112 L103.321984,3.980032 C103.321984,1.879552 101.604224,0.160512 99.502464,0.160512 Z M99.502464,0.772352 C101.271424,0.772352 102.711424,2.211072 102.711424,3.980032 L102.711424,26.906112 C102.711424,28.675072 101.271424,30.115072 99.502464,30.115072 L3.981184,30.115072 C2.210944,30.115072 0.770944,28.675072 0.770944,26.906112 L0.770944,3.980032 C0.770944,2.211072 2.210944,0.772352 3.981184,0.772352 L99.502464,0.772352 L99.502464,0.772352 Z" id="Stroke-3" stroke="#FEFEFE" stroke-width="0.25"></path>
                        <path d="M36.396288,7.988096 C36.396288,8.628096 36.206848,9.137536 35.826688,9.517696 C35.395328,9.970816 34.832128,10.197376 34.142208,10.197376 C33.480448,10.197376 32.917248,9.966976 32.455168,9.507456 C31.991808,9.049216 31.760128,8.480896 31.760128,7.801216 C31.760128,7.122816 31.991808,6.554496 32.455168,6.094976 C32.917248,5.635456 33.480448,5.406336 34.142208,5.406336 C34.469888,5.406336 34.784768,5.470336 35.083008,5.599616 C35.381248,5.726336 35.621888,5.897856 35.799808,6.110336 L35.397888,6.514816 C35.093248,6.151296 34.674688,5.970816 34.142208,5.970816 C33.658368,5.970816 33.242368,6.139776 32.890368,6.478976 C32.537088,6.819456 32.361728,7.259776 32.361728,7.801216 C32.361728,8.343936 32.537088,8.784256 32.890368,9.124736 C33.242368,9.462656 33.658368,9.632896 34.142208,9.632896 C34.654208,9.632896 35.081728,9.461376 35.422208,9.120896 C35.643648,8.898176 35.772928,8.589696 35.806208,8.191616 L34.142208,8.191616 L34.142208,7.641216 L36.364288,7.641216 C36.384768,7.761536 36.396288,7.876736 36.396288,7.988096" id="Fill-5" fill="#FEFEFE"></path>
                        <polygon id="Fill-7" fill="#FEFEFE" points="39.91744 6.073088 37.82976 6.073088 37.82976 7.527168 39.71264 7.527168 39.71264 8.076288 37.82976 8.076288 37.82976 9.530368 39.91744 9.530368 39.91744 10.094848 37.24096 10.094848 37.24096 5.509888 39.91744 5.509888"></polygon>
                        <polygon id="Fill-9" fill="#FEFEFE" points="42.40256 10.094336 41.81248 10.094336 41.81248 6.072576 40.53248 6.072576 40.53248 5.509376 43.68256 5.509376 43.68256 6.072576 42.40256 6.072576"></polygon>
                        <mask id="mask-2" fill="white">
                            <use xlink:href="#path-1"></use>
                        </mask>
                        <g id="Clip-12"></g>
                        <polygon id="Fill-11" fill="#FEFEFE" mask="url(#mask-2)" points="45.96224 10.094464 46.55104 10.094464 46.55104 5.509504 45.96224 5.509504"></polygon>
                        <polygon id="Fill-13" fill="#FEFEFE" mask="url(#mask-2)" points="49.165056 10.094336 48.574976 10.094336 48.574976 6.072576 47.294976 6.072576 47.294976 5.509376 50.445056 5.509376 50.445056 6.072576 49.165056 6.072576"></polygon>
                        <path d="M53.483776,9.11808 C53.822976,9.4624 54.237696,9.63264 54.729216,9.63264 C55.219456,9.63264 55.635456,9.4624 55.973376,9.11808 C56.313856,8.77376 56.484096,8.336 56.484096,7.80224 C56.484096,7.26848 56.313856,6.82944 55.973376,6.48512 C55.635456,6.14208 55.219456,5.97056 54.729216,5.97056 C54.237696,5.97056 53.822976,6.14208 53.483776,6.48512 C53.143296,6.82944 52.974336,7.26848 52.974336,7.80224 C52.974336,8.336 53.143296,8.77376 53.483776,9.11808 M56.409856,9.50208 C55.959296,9.96544 55.398656,10.19712 54.729216,10.19712 C54.058496,10.19712 53.497856,9.96544 53.047296,9.50208 C52.598016,9.03872 52.372736,8.47168 52.372736,7.80224 C52.372736,7.13152 52.598016,6.56448 53.047296,6.1024 C53.497856,5.63776 54.058496,5.40736 54.729216,5.40736 C55.394816,5.40736 55.954176,5.63904 56.407296,6.10496 C56.859136,6.57088 57.084416,7.13536 57.084416,7.80224 C57.084416,8.47168 56.860416,9.03872 56.409856,9.50208" id="Fill-14" fill="#FEFEFE" mask="url(#mask-2)"></path>
                        <polygon id="Fill-15" fill="#FEFEFE" mask="url(#mask-2)" points="57.912448 10.094336 57.912448 5.509376 58.630528 5.509376 60.857728 9.075456 60.882048 9.075456 60.857728 8.192256 60.857728 5.509376 61.447808 5.509376 61.447808 10.094336 60.832128 10.094336 58.501248 6.354176 58.475648 6.354176 58.501248 7.238656 58.501248 10.094336"></polygon>
                        <path d="M81.87776,23.085184 L83.3024,23.085184 L83.3024,13.531264 L81.87776,13.531264 L81.87776,23.085184 Z M94.72128,16.973184 L93.08672,21.115264 L93.03808,21.115264 L91.3408,16.973184 L89.8048,16.973184 L92.34816,22.761344 L90.8992,25.981824 L92.38656,25.981824 L96.30592,16.973184 L94.72128,16.973184 Z M86.63424,21.999744 C86.16576,21.999744 85.51552,21.766784 85.51552,21.189504 C85.51552,20.452224 86.32576,20.168064 87.0272,20.168064 C87.65312,20.168064 87.9488,20.303744 88.33024,20.488064 C88.21888,21.372544 87.45728,21.999744 86.63424,21.999744 L86.63424,21.999744 Z M86.80576,16.764544 C85.77408,16.764544 84.704,17.218944 84.26112,18.226304 L85.52704,18.754944 C85.79712,18.226304 86.30272,18.054784 86.83008,18.054784 C87.56736,18.054784 88.31744,18.496384 88.33024,19.284864 L88.33024,19.382144 C88.07168,19.233664 87.51872,19.013504 86.84288,19.013504 C85.4784,19.013504 84.0896,19.763584 84.0896,21.163904 C84.0896,22.441344 85.20704,23.265664 86.46144,23.265664 C87.42016,23.265664 87.9488,22.835584 88.2816,22.331264 L88.33024,22.331264 L88.33024,23.069824 L89.70624,23.069824 L89.70624,19.406464 C89.70624,17.710464 88.44032,16.764544 86.80576,16.764544 L86.80576,16.764544 Z M77.99424,18.136704 L75.96672,18.136704 L75.96672,14.861184 L77.99424,14.861184 C79.06048,14.861184 79.66464,15.744384 79.66464,16.499584 C79.66464,17.239424 79.06048,18.136704 77.99424,18.136704 L77.99424,18.136704 Z M77.95712,13.531264 L74.53952,13.531264 L74.53952,23.085184 L75.96672,23.085184 L75.96672,19.465344 L77.95712,19.465344 C79.53792,19.465344 81.09184,18.322304 81.09184,16.499584 C81.09184,14.675584 79.53792,13.531264 77.95712,13.531264 L77.95712,13.531264 Z M59.32672,22.002304 C58.34112,22.002304 57.5168,21.176704 57.5168,20.043904 C57.5168,18.899584 58.34112,18.061184 59.32672,18.061184 C60.29824,18.061184 61.06112,18.899584 61.06112,20.043904 C61.06112,21.176704 60.29824,22.002304 59.32672,22.002304 L59.32672,22.002304 Z M60.96256,17.508224 L60.91392,17.508224 C60.59392,17.126784 59.97824,16.781184 59.20256,16.781184 C57.57696,16.781184 56.08704,18.210944 56.08704,20.043904 C56.08704,21.866624 57.57696,23.282304 59.20256,23.282304 C59.97824,23.282304 60.59392,22.936704 60.91392,22.542464 L60.96256,22.542464 L60.96256,23.012224 C60.96256,24.253824 60.29824,24.919424 59.22688,24.919424 C58.35392,24.919424 57.8112,24.292224 57.58976,23.762304 L56.34688,24.279424 C56.704,25.140864 57.6512,26.199424 59.22688,26.199424 C60.90112,26.199424 62.31808,25.215104 62.31808,22.813824 L62.31808,16.979584 L60.96256,16.979584 L60.96256,17.508224 Z M63.3024,23.085184 L64.7296,23.085184 L64.7296,13.531264 L63.3024,13.531264 L63.3024,23.085184 Z M66.8352,19.932544 C66.79936,18.678144 67.808,18.038144 68.53376,18.038144 C69.1008,18.038144 69.5808,18.321024 69.7408,18.726784 L66.8352,19.932544 Z M71.26784,18.850944 C70.99648,18.123904 70.17088,16.781184 68.48512,16.781184 C66.81088,16.781184 65.41952,18.099584 65.41952,20.032384 C65.41952,21.853824 66.79936,23.282304 68.64512,23.282304 C70.13504,23.282304 70.99648,22.370944 71.3536,21.842304 L70.24512,21.102464 C69.87648,21.643904 69.37088,22.002304 68.64512,22.002304 C67.91936,22.002304 67.40096,21.669504 67.06816,21.016704 L71.41504,19.219584 L71.26784,18.850944 Z M36.64384,17.779584 L36.64384,19.158144 L39.94368,19.158144 C39.84512,19.932544 39.58656,20.499584 39.19232,20.893824 C38.71232,21.373824 37.96096,21.902464 36.64384,21.902464 C34.61248,21.902464 33.02528,20.265344 33.02528,18.233984 C33.02528,16.202624 34.61248,14.565504 36.64384,14.565504 C37.73952,14.565504 38.53952,14.996864 39.13088,15.551104 L40.10368,14.578304 C39.27936,13.791104 38.18368,13.186944 36.64384,13.186944 C33.86112,13.186944 31.52256,15.451264 31.52256,18.233984 C31.52256,21.016704 33.86112,23.282304 36.64384,23.282304 C38.14656,23.282304 39.27936,22.789504 40.16512,21.866624 C41.07648,20.955264 41.36064,19.675264 41.36064,18.641024 C41.36064,18.321024 41.33504,18.025344 41.28512,17.779584 L36.64384,17.779584 Z M45.10976,22.002304 C44.12544,22.002304 43.2768,21.189504 43.2768,20.032384 C43.2768,18.861184 44.12544,18.061184 45.10976,18.061184 C46.09536,18.061184 46.94528,18.861184 46.94528,20.032384 C46.94528,21.189504 46.09536,22.002304 45.10976,22.002304 L45.10976,22.002304 Z M45.10976,16.781184 C43.31264,16.781184 41.84704,18.148224 41.84704,20.032384 C41.84704,21.902464 43.31264,23.282304 45.10976,23.282304 C46.90688,23.282304 48.37248,21.902464 48.37248,20.032384 C48.37248,18.148224 46.90688,16.781184 45.10976,16.781184 L45.10976,16.781184 Z M52.22784,22.002304 C51.24224,22.002304 50.39232,21.189504 50.39232,20.032384 C50.39232,18.861184 51.24224,18.061184 52.22784,18.061184 C53.21216,18.061184 54.0608,18.861184 54.0608,20.032384 C54.0608,21.189504 53.21216,22.002304 52.22784,22.002304 L52.22784,22.002304 Z M52.22784,16.781184 C50.42944,16.781184 48.96512,18.148224 48.96512,20.032384 C48.96512,21.902464 50.42944,23.282304 52.22784,23.282304 C54.02496,23.282304 55.49056,21.902464 55.49056,20.032384 C55.49056,18.148224 54.02496,16.781184 52.22784,16.781184 L52.22784,16.781184 Z" id="Fill-16" fill="#FEFEFE" mask="url(#mask-2)"></path>
                        <path d="M25.905024,15.2768 L22.294144,13.19296 L19.324544,16.064 L22.038144,18.688 L25.905024,16.45568 C26.117504,16.3328 26.245504,16.11264 26.245504,15.86688 C26.245504,15.62112 26.117504,15.40096 25.905024,15.2768" id="Fill-17" fill="#FCCC09" mask="url(#mask-2)"></path>
                        <polygon id="Fill-18" fill="#66BE69" mask="url(#mask-2)" points="21.68128 12.839296 17.70816 10.545536 9.00032 6.083456 18.83456 15.590016"></polygon>
                        <polygon id="Fill-19" fill="#EE3E49" mask="url(#mask-2)" points="9.14496 25.904256 17.72224 21.179776 21.42656 19.042176 18.83456 16.537216"></polygon>
                        <polygon id="Fill-20" fill="#3DC5F1" mask="url(#mask-2)" points="8.418688 6.468096 8.409728 25.669376 18.346368 16.064256"></polygon>
                    </g>
                </g>
            </g>
        </g>
    </g>
</svg>