<?xml version="1.0" encoding="UTF-8"?>
<svg width="241px" height="40px" viewBox="0 0 241 40" version="1.1" xmlns="http://www.w3.org/2000/svg" xmlns:xlink="http://www.w3.org/1999/xlink">
    <!-- Generator: Sketch 57.1 (83088) - https://sketch.com -->
    <title>Rides at 449</title>
    <desc>Created with Sketch.</desc>
    <g id="Rides-at-449" stroke="none" stroke-width="1" fill="none" fill-rule="evenodd">
        <rect id="Rectangle" x="0" y="0" width="241" height="40"></rect>
        <g id="Group-30" transform="translate(2.000000, 2.000000)">
            <path d="M0.5,0.5 L0.5,35.5 L235.903539,35.5 L221.480667,18.8924992 L235.96961,0.5 L0.5,0.5 Z" id="Rectangle" stroke="#F15D61" fill="#FFFFFF"></path>
            <path d="M38.328,22 L36.256,18.514 L34.632,18.514 L34.632,22 L32.994,22 L32.994,12.662 L37.096,12.662 C38.944,12.662 40.148,13.866 40.148,15.588 C40.148,17.254 39.056,18.15 37.936,18.332 L40.218,22 L38.328,22 Z M38.468,15.588 C38.468,14.692 37.796,14.104 36.872,14.104 L34.632,14.104 L34.632,17.072 L36.872,17.072 C37.796,17.072 38.468,16.484 38.468,15.588 Z M42.472,14.118 C41.982,14.118 41.562,13.712 41.562,13.208 C41.562,12.704 41.982,12.298 42.472,12.298 C42.976,12.298 43.382,12.704 43.382,13.208 C43.382,13.712 42.976,14.118 42.472,14.118 Z M41.744,22 L41.744,15.238 L43.214,15.238 L43.214,22 L41.744,22 Z M49.878,22 L49.878,21.076 C49.36,21.748 48.576,22.168 47.708,22.168 C45.972,22.168 44.698,20.852 44.698,18.626 C44.698,16.442 45.958,15.07 47.708,15.07 C48.548,15.07 49.332,15.462 49.878,16.176 L49.878,12.662 L51.348,12.662 L51.348,22 L49.878,22 Z M49.878,19.97 L49.878,17.282 C49.542,16.778 48.828,16.372 48.128,16.372 C46.966,16.372 46.224,17.31 46.224,18.626 C46.224,19.928 46.966,20.866 48.128,20.866 C48.828,20.866 49.542,20.474 49.878,19.97 Z M52.832,18.612 C52.832,16.652 54.26,15.07 56.262,15.07 C58.292,15.07 59.594,16.624 59.594,18.752 L59.594,19.102 L54.372,19.102 C54.484,20.124 55.254,20.964 56.528,20.964 C57.186,20.964 57.97,20.698 58.446,20.222 L59.118,21.188 C58.446,21.832 57.452,22.168 56.374,22.168 C54.344,22.168 52.832,20.754 52.832,18.612 Z M56.262,16.274 C55.002,16.274 54.428,17.24 54.358,18.066 L58.166,18.066 C58.138,17.268 57.592,16.274 56.262,16.274 Z M60.462,21.118 L61.134,20.054 C61.61,20.544 62.548,21.006 63.43,21.006 C64.312,21.006 64.76,20.684 64.76,20.18 C64.76,19.592 64.046,19.382 63.22,19.2 C62.058,18.948 60.672,18.64 60.672,17.128 C60.672,16.022 61.624,15.07 63.332,15.07 C64.48,15.07 65.348,15.476 65.964,16.022 L65.348,17.058 C64.942,16.596 64.186,16.246 63.346,16.246 C62.576,16.246 62.086,16.526 62.086,17.002 C62.086,17.52 62.758,17.702 63.556,17.884 C64.732,18.136 66.174,18.472 66.174,20.068 C66.174,21.258 65.18,22.168 63.36,22.168 C62.212,22.168 61.162,21.804 60.462,21.118 Z M70.668,21.118 L71.34,20.054 C71.816,20.544 72.754,21.006 73.636,21.006 C74.518,21.006 74.966,20.684 74.966,20.18 C74.966,19.592 74.252,19.382 73.426,19.2 C72.264,18.948 70.878,18.64 70.878,17.128 C70.878,16.022 71.83,15.07 73.538,15.07 C74.686,15.07 75.554,15.476 76.17,16.022 L75.554,17.058 C75.148,16.596 74.392,16.246 73.552,16.246 C72.782,16.246 72.292,16.526 72.292,17.002 C72.292,17.52 72.964,17.702 73.762,17.884 C74.938,18.136 76.38,18.472 76.38,20.068 C76.38,21.258 75.386,22.168 73.566,22.168 C72.418,22.168 71.368,21.804 70.668,21.118 Z M79.894,22.168 C78.76,22.168 78.158,21.552 78.158,20.432 L78.158,16.526 L77.038,16.526 L77.038,15.238 L78.158,15.238 L78.158,13.39 L79.628,13.39 L79.628,15.238 L81,15.238 L81,16.526 L79.628,16.526 L79.628,20.068 C79.628,20.53 79.852,20.866 80.272,20.866 C80.552,20.866 80.818,20.754 80.93,20.628 L81.28,21.734 C81.014,21.986 80.58,22.168 79.894,22.168 Z M86.46,22 L86.46,21.272 C85.956,21.846 85.172,22.168 84.276,22.168 C83.17,22.168 81.924,21.426 81.924,19.928 C81.924,18.374 83.17,17.73 84.276,17.73 C85.186,17.73 85.97,18.024 86.46,18.598 L86.46,17.59 C86.46,16.806 85.816,16.33 84.878,16.33 C84.122,16.33 83.464,16.61 82.876,17.184 L82.274,16.162 C83.058,15.42 84.038,15.07 85.116,15.07 C86.614,15.07 87.93,15.7 87.93,17.52 L87.93,22 L86.46,22 Z M86.46,20.46 L86.46,19.438 C86.124,18.976 85.494,18.738 84.85,18.738 C84.024,18.738 83.408,19.214 83.408,19.956 C83.408,20.684 84.024,21.16 84.85,21.16 C85.494,21.16 86.124,20.922 86.46,20.46 Z M89.834,22 L89.834,15.238 L91.304,15.238 L91.304,16.232 C91.808,15.588 92.62,15.084 93.502,15.084 L93.502,16.54 C93.376,16.512 93.222,16.498 93.04,16.498 C92.424,16.498 91.598,16.918 91.304,17.394 L91.304,22 L89.834,22 Z M96.722,22.168 C95.588,22.168 94.986,21.552 94.986,20.432 L94.986,16.526 L93.866,16.526 L93.866,15.238 L94.986,15.238 L94.986,13.39 L96.456,13.39 L96.456,15.238 L97.828,15.238 L97.828,16.526 L96.456,16.526 L96.456,20.068 C96.456,20.53 96.68,20.866 97.1,20.866 C97.38,20.866 97.646,20.754 97.758,20.628 L98.108,21.734 C97.842,21.986 97.408,22.168 96.722,22.168 Z M99.886,14.118 C99.396,14.118 98.976,13.712 98.976,13.208 C98.976,12.704 99.396,12.298 99.886,12.298 C100.39,12.298 100.796,12.704 100.796,13.208 C100.796,13.712 100.39,14.118 99.886,14.118 Z M99.158,22 L99.158,15.238 L100.628,15.238 L100.628,22 L99.158,22 Z M107.096,22 L107.096,17.772 C107.096,16.722 106.564,16.372 105.738,16.372 C104.982,16.372 104.338,16.82 104.002,17.282 L104.002,22 L102.532,22 L102.532,15.238 L104.002,15.238 L104.002,16.162 C104.45,15.63 105.318,15.07 106.382,15.07 C107.838,15.07 108.566,15.854 108.566,17.24 L108.566,22 L107.096,22 Z M110.386,23.736 L111.072,22.672 C111.618,23.302 112.318,23.54 113.214,23.54 C114.18,23.54 115.216,23.092 115.216,21.706 L115.216,20.894 C114.698,21.566 113.928,22.014 113.046,22.014 C111.324,22.014 110.05,20.768 110.05,18.542 C110.05,16.358 111.31,15.07 113.046,15.07 C113.9,15.07 114.67,15.462 115.216,16.176 L115.216,15.238 L116.686,15.238 L116.686,21.65 C116.686,24.086 114.88,24.744 113.214,24.744 C112.066,24.744 111.212,24.492 110.386,23.736 Z M115.216,19.802 L115.216,17.282 C114.894,16.778 114.166,16.372 113.48,16.372 C112.318,16.372 111.576,17.24 111.576,18.542 C111.576,19.844 112.318,20.712 113.48,20.712 C114.166,20.712 114.894,20.306 115.216,19.802 Z M126.318,22 L126.318,21.272 C125.814,21.846 125.03,22.168 124.134,22.168 C123.028,22.168 121.782,21.426 121.782,19.928 C121.782,18.374 123.028,17.73 124.134,17.73 C125.044,17.73 125.828,18.024 126.318,18.598 L126.318,17.59 C126.318,16.806 125.674,16.33 124.736,16.33 C123.98,16.33 123.322,16.61 122.734,17.184 L122.132,16.162 C122.916,15.42 123.896,15.07 124.974,15.07 C126.472,15.07 127.788,15.7 127.788,17.52 L127.788,22 L126.318,22 Z M126.318,20.46 L126.318,19.438 C125.982,18.976 125.352,18.738 124.708,18.738 C123.882,18.738 123.266,19.214 123.266,19.956 C123.266,20.684 123.882,21.16 124.708,21.16 C125.352,21.16 125.982,20.922 126.318,20.46 Z M131.722,22.168 C130.588,22.168 129.986,21.552 129.986,20.432 L129.986,16.526 L128.866,16.526 L128.866,15.238 L129.986,15.238 L129.986,13.39 L131.456,13.39 L131.456,15.238 L132.828,15.238 L132.828,16.526 L131.456,16.526 L131.456,20.068 C131.456,20.53 131.68,20.866 132.1,20.866 C132.38,20.866 132.646,20.754 132.758,20.628 L133.108,21.734 C132.842,21.986 132.408,22.168 131.722,22.168 Z M141.648,22 L141.648,19.886 L137.196,19.886 L137.196,18.57 L141.032,12.662 L143.286,12.662 L143.286,18.444 L144.532,18.444 L144.532,19.886 L143.286,19.886 L143.286,22 L141.648,22 Z M141.648,14.132 L138.806,18.444 L141.648,18.444 L141.648,14.132 Z M149.768,22 L149.768,19.886 L145.316,19.886 L145.316,18.57 L149.152,12.662 L151.406,12.662 L151.406,18.444 L152.652,18.444 L152.652,19.886 L151.406,19.886 L151.406,22 L149.768,22 Z M149.768,14.132 L146.926,18.444 L149.768,18.444 L149.768,14.132 Z M154.08,21.118 L154.836,19.886 C155.326,20.39 155.872,20.698 156.754,20.698 C158.448,20.698 159.218,19.158 159.218,17.632 L159.218,17.352 C158.784,17.982 157.804,18.668 156.712,18.668 C155.032,18.668 153.576,17.632 153.576,15.644 C153.576,13.922 154.934,12.508 157.02,12.508 C159.764,12.508 160.87,14.734 160.87,17.338 C160.87,20.026 159.456,22.154 156.754,22.154 C155.606,22.154 154.71,21.748 154.08,21.118 Z M159.19,16.162 C159.106,15.154 158.546,13.964 157.104,13.964 C155.886,13.964 155.242,14.846 155.242,15.588 C155.242,16.736 156.138,17.254 157.146,17.254 C157.944,17.254 158.728,16.834 159.19,16.162 Z M163.488,16.736 L163.558,15.168 L162.242,16.022 L161.864,15.35 L163.25,14.636 L161.864,13.922 L162.242,13.25 L163.558,14.09 L163.488,12.522 L164.272,12.522 L164.188,14.09 L165.504,13.25 L165.896,13.922 L164.51,14.636 L165.896,15.35 L165.504,16.022 L164.188,15.168 L164.272,16.736 L163.488,16.736 Z M173.904,22.168 C171.762,22.168 170.432,20.558 170.432,18.612 C170.432,16.68 171.762,15.07 173.904,15.07 C176.074,15.07 177.39,16.68 177.39,18.612 C177.39,20.558 176.074,22.168 173.904,22.168 Z M173.904,20.866 C175.164,20.866 175.864,19.816 175.864,18.612 C175.864,17.422 175.164,16.372 173.904,16.372 C172.658,16.372 171.958,17.422 171.958,18.612 C171.958,19.816 172.658,20.866 173.904,20.866 Z M183.438,22 L183.438,17.772 C183.438,16.722 182.906,16.372 182.08,16.372 C181.324,16.372 180.68,16.82 180.344,17.282 L180.344,22 L178.874,22 L178.874,15.238 L180.344,15.238 L180.344,16.162 C180.792,15.63 181.66,15.07 182.724,15.07 C184.18,15.07 184.908,15.854 184.908,17.24 L184.908,22 L183.438,22 Z M186.812,22 L186.812,12.662 L188.282,12.662 L188.282,22 L186.812,22 Z M190.116,23.33 C190.27,23.4 190.508,23.442 190.676,23.442 C191.138,23.442 191.446,23.302 191.642,22.854 L191.978,22.084 L189.206,15.238 L190.774,15.238 L192.748,20.306 L194.722,15.238 L196.304,15.238 L193.042,23.218 C192.58,24.366 191.768,24.73 190.718,24.744 C190.508,24.744 190.102,24.702 189.892,24.646 L190.116,23.33 Z" id="Ridesstartingat449*only" fill="#F15D61" fill-rule="nonzero"></path>
        </g>
    </g>
</svg>