<?xml version="1.0" encoding="UTF-8"?>
<svg width="29px" height="30px" viewBox="0 0 29 30" version="1.1" xmlns="http://www.w3.org/2000/svg" xmlns:xlink="http://www.w3.org/1999/xlink">
    <!-- Generator: Sketch 56.3 (81716) - https://sketch.com -->
    <title>Group 18</title>
    <desc>Created with Sketch.</desc>
    <g id="Homepage" stroke="none" stroke-width="1" fill="none" fill-rule="evenodd">
        <g id="homepage-3" transform="translate(-1235.000000, -3459.000000)">
            <g id="Group-25" transform="translate(0.000000, 3096.000000)">
                <g id="Group-45" transform="translate(128.000000, 364.000000)">
                    <g id="Group-13" transform="translate(1059.000000, 0.000000)">
                        <g id="Group-18" transform="translate(48.645442, 0.382830)">
                            <path d="M22.6799127,10.4635727 C22.1098698,10.7157365 21.4970355,10.8869021 20.8536359,10.9633154 C21.5092616,10.5705513 22.0135891,9.94854737 22.2519984,9.20581053 C21.6376359,9.56953762 20.9575579,9.83392749 20.2331602,9.97758441 C19.6524195,9.35863704 18.8271563,8.97198596 17.9117255,8.97198596 C16.1557489,8.97198596 14.7314058,10.396329 14.7314058,12.1507774 C14.7314058,12.4014129 14.7604429,12.644407 14.8154604,12.8767033 C12.1730901,12.7437442 9.83025965,11.4783407 8.26073138,9.55425497 C7.98717193,10.0234324 7.83128889,10.5705513 7.83128889,11.1528203 C7.83128889,12.2562277 8.39216218,13.2297326 9.24493411,13.7997754 C8.72379571,13.7829645 8.23322261,13.6393076 7.80530838,13.4008982 C7.80530838,13.4146526 7.80530838,13.4268788 7.80530838,13.4406331 C7.80530838,14.9826526 8.90107446,16.2663953 10.3559828,16.558294 C10.0885365,16.6316507 9.80733567,16.6713856 9.51849357,16.6713856 C9.31217778,16.6713856 9.11350331,16.6515181 8.91941365,16.6133115 C9.3244039,17.8771867 10.4981115,18.7956741 11.890361,18.8216546 C10.8022363,19.6744265 9.43138246,20.1818105 7.94132398,20.1818105 C7.68457544,20.1818105 7.43088343,20.1680561 7.18330448,20.1374908 C8.58930838,21.0406955 10.2612304,21.567947 12.0554136,21.567947 C17.9040842,21.567947 21.1027431,16.7233466 21.1027431,12.5206175 C21.1027431,12.3830737 21.0996865,12.2455298 21.0920452,12.1095142 C21.7155774,11.6602043 22.2535267,11.1008593 22.6799127,10.4635727 Z" id="Stroke-1" fill="#FFFFFF"></path>
                            <path d="M13.754386,-6.39488462e-14 C21.3513918,-6.39488462e-14 27.5087719,6.15738012 27.5087719,13.754386 C27.5087719,21.3513918 21.3513918,27.5087719 13.754386,27.5087719 C6.15738012,27.5087719 4.08562073e-14,21.3513918 4.08562073e-14,13.754386 C4.08562073e-14,6.15738012 6.15738012,-6.39488462e-14 13.754386,-6.39488462e-14 Z" id="Stroke-3" stroke="#FEFEFE"></path>
                        </g>
                    </g>
                </g>
            </g>
        </g>
    </g>
</svg>